<svg version="1.0" xmlns="http://www.w3.org/2000/svg"
 width="512.000000pt" height="512.000000pt" viewBox="0 0 512.000000 512.000000"
 style="background-color:#fff;"
 preserveAspectRatio="xMidYMid meet">
<g transform="translate(0.000000,512.000000) scale(0.100000,-0.100000)"
fill="#000000" stroke="none">
<path d="M0 5046 l0 -74 225 -219 c178 -171 235 -222 271 -235 25 -9 52 -25
60 -35 31 -39 95 -180 99 -218 l5 -40 -18 50 c-43 113 -109 225 -134 225 -16
0 -8 -20 26 -64 19 -25 46 -80 60 -123 29 -87 30 -93 17 -93 -5 0 -12 15 -16
33 -4 17 -23 66 -42 107 -32 70 -51 91 -291 328 -145 144 -258 248 -261 241
-2 -7 31 -45 74 -83 137 -125 394 -389 434 -447 46 -65 71 -122 71 -158 -1
-19 -8 -8 -25 37 -32 83 -51 109 -160 222 -50 52 -108 116 -129 142 -20 26
-58 64 -84 85 l-47 38 53 -60 c29 -33 97 -109 152 -170 55 -60 100 -114 100
-119 0 -5 -44 38 -97 95 -105 112 -170 176 -276 271 l-67 60 0 -43 c0 -40 6
-50 70 -120 65 -72 68 -77 54 -98 -14 -19 -13 -23 13 -45 15 -13 30 -22 33
-19 3 2 -6 12 -19 22 -16 12 -22 24 -18 36 4 9 11 15 16 13 21 -7 183 -196
201 -234 11 -22 20 -60 20 -85 0 -60 17 -118 46 -156 25 -32 25 -33 6 -68
l-18 -36 -61 31 c-46 23 -70 43 -92 77 -34 51 -34 54 -31 130 2 49 -1 55 -46
105 -91 100 -158 168 -168 168 -5 0 39 -49 97 -109 144 -148 145 -133 -25
-322 l-78 -87 0 -81 0 -82 60 32 c49 26 63 30 73 19 8 -9 9 -14 1 -17 -6 -2
-20 -10 -30 -19 -10 -8 21 5 71 29 118 58 193 83 208 68 7 -7 6 -12 -4 -15
-139 -49 -243 -108 -327 -184 -40 -36 -53 -54 -50 -71 3 -19 9 -14 46 33 85
110 362 253 362 188 0 -5 -19 -15 -42 -22 -53 -15 -129 -53 -185 -92 -40 -27
-183 -206 -183 -229 0 -5 34 35 76 90 84 111 142 156 258 202 65 26 72 27 84
11 7 -9 11 -20 10 -24 -2 -5 -38 -24 -80 -42 -42 -18 -103 -51 -135 -73 -75
-51 -213 -212 -213 -249 0 -4 14 14 32 41 53 80 177 198 245 233 94 49 175 75
185 60 13 -22 11 -24 -75 -56 -150 -57 -267 -149 -351 -276 -30 -45 -36 -62
-29 -78 8 -18 11 -15 32 23 13 23 19 39 12 35 -25 -16 -8 12 49 81 33 40 88
91 122 114 66 45 206 109 239 109 36 0 19 -30 -33 -56 -178 -89 -314 -217
-386 -363 l-37 -75 -3 -780 -2 -780 49 -100 c61 -124 147 -241 264 -358 87
-87 102 -118 59 -118 -60 0 -259 211 -344 365 -15 28 -28 44 -28 36 0 -19 65
-125 121 -196 57 -73 172 -184 217 -210 17 -11 32 -22 32 -25 0 -3 -11 -18
-25 -35 l-24 -30 -1 32 c0 25 -11 40 -60 83 -64 56 -168 176 -225 260 -19 29
-35 48 -35 43 0 -29 170 -239 255 -315 35 -32 55 -78 34 -78 -4 0 -9 -10 -11
-23 -3 -19 -23 -3 -141 112 l-137 135 1 -116 0 -116 57 -49 c76 -65 159 -127
202 -148 l34 -18 33 39 c18 22 44 60 57 85 23 41 24 48 11 65 -13 16 -14 16
-9 1 11 -30 -4 -63 -51 -115 -29 -32 -51 -49 -60 -45 -26 9 -16 31 31 70 36
30 44 43 41 62 -6 28 65 153 95 167 11 5 29 25 40 44 10 19 12 26 4 15 -8 -11
-22 -29 -31 -40 -16 -20 -16 -20 -5 2 5 12 28 42 49 67 22 25 48 60 58 77 15
26 23 30 51 27 30 -4 37 0 65 41 42 61 56 107 50 162 -4 34 0 56 16 90 l22 44
-25 -30 c-14 -16 -27 -41 -29 -55 -3 -18 -4 -15 -6 12 -1 26 6 45 25 67 l26
31 85 -108 c48 -59 90 -112 94 -118 10 -12 -46 -84 -65 -84 -7 0 -31 16 -53
35 -47 40 -57 43 -48 16 3 -10 -1 -24 -10 -31 -8 -7 -38 -46 -66 -87 -66 -97
-62 -115 40 -194 l33 -26 -47 -71 -48 -72 -51 37 c-28 21 -63 46 -79 57 -15
11 -27 23 -27 26 0 10 111 184 134 208 14 16 16 23 6 20 -14 -3 -97 -124 -190
-276 -25 -40 -62 -100 -83 -133 -21 -34 -36 -63 -34 -66 3 -2 22 21 44 51 l39
55 74 -55 c41 -30 76 -56 78 -59 6 -5 -81 -145 -91 -145 -4 0 -42 23 -83 51
-41 27 -116 67 -167 87 -51 21 -119 56 -152 77 -81 54 -96 61 -60 30 39 -34
144 -93 219 -123 59 -24 220 -125 243 -154 9 -10 9 -19 0 -35 -23 -39 -71
-118 -229 -371 -87 -140 -158 -256 -158 -258 0 -2 60 -4 134 -4 l134 0 85 163
c95 184 145 323 148 414 1 26 2 25 21 -16 20 -43 20 -47 4 -130 -13 -69 -33
-119 -98 -251 -45 -91 -84 -168 -86 -172 -2 -5 22 -8 54 -8 42 0 60 4 70 18
13 16 13 16 14 0 0 -32 20 -19 21 15 1 17 4 45 8 62 6 30 6 29 36 -29 26 -52
48 -76 60 -64 2 2 -7 27 -21 55 -18 35 -24 62 -22 89 4 41 5 40 33 -39 9 -27
28 -61 40 -75 22 -25 25 -26 40 -11 15 15 15 21 -8 75 -22 53 -57 159 -57 173
0 3 15 -17 34 -45 19 -28 59 -72 89 -98 30 -25 62 -63 71 -85 l18 -38 223 -2
223 -2 -33 63 c-33 63 -79 188 -71 195 2 3 34 -54 71 -126 50 -97 72 -131 86
-131 24 0 24 -1 -5 51 -13 24 -50 105 -82 179 -32 74 -98 205 -146 290 -94
165 -112 212 -128 330 -16 129 -15 136 29 164 79 50 82 49 129 -57 69 -157
113 -278 127 -355 8 -41 53 -193 100 -338 73 -224 89 -264 105 -264 17 0 14
14 -34 153 -30 83 -70 193 -90 243 -19 51 -42 118 -50 150 -41 164 -80 352
-96 464 -12 85 -18 110 -19 78 0 -26 4 -81 10 -123 15 -107 5 -104 -15 4 -19
107 -21 195 -4 209 20 16 98 45 105 38 3 -3 19 -92 34 -197 35 -234 51 -311
43 -199 -3 41 -14 136 -25 210 -28 204 -31 192 48 226 37 16 71 30 75 32 4 2
8 -41 8 -96 0 -152 18 -344 45 -477 48 -237 62 -474 39 -667 -5 -43 -4 -48 14
-48 17 0 22 8 25 38 l4 37 1 -37 c2 -28 6 -38 19 -38 14 0 16 14 10 144 l-6
145 38 -14 c107 -37 151 -83 182 -188 23 -78 46 -117 34 -57 -14 66 -47 142
-78 177 -18 20 -64 51 -107 72 l-75 36 -3 70 -3 70 28 -27 c54 -52 85 -58 300
-58 164 0 202 -3 221 -16 21 -15 22 -21 22 -185 0 -106 4 -169 10 -169 6 0 10
63 10 169 0 233 22 215 -258 221 -204 5 -223 7 -249 26 -58 43 -96 122 -74
155 34 56 -4 215 -64 268 -19 17 -35 33 -35 36 0 14 44 1 118 -35 77 -37 181
-74 189 -67 1 2 -35 18 -81 35 -104 40 -146 68 -171 115 -23 43 -15 65 30 80
26 9 32 6 69 -36 60 -66 72 -71 316 -122 139 -29 192 -55 236 -112 l29 -38 -2
-348 c-2 -221 1 -347 7 -347 6 0 10 126 10 344 0 363 -7 438 -50 580 -29 94
-48 109 -161 135 -142 32 -190 58 -244 132 -55 74 -60 93 -48 167 l9 57 8 -58
c7 -51 15 -65 59 -113 63 -69 96 -86 227 -114 129 -27 164 -41 185 -73 9 -14
27 -93 40 -178 23 -143 25 -180 25 -516 l0 -363 40 0 40 0 0 309 c0 177 4 321
10 335 9 24 15 26 64 26 38 0 58 -5 67 -17 11 -13 14 -77 12 -335 l-2 -318 54
0 55 0 1 358 0 357 33 163 c41 204 45 209 195 253 122 35 136 42 192 94 76 70
99 104 99 141 0 35 13 46 24 18 19 -50 -2 -107 -71 -189 -39 -48 -70 -71 -149
-114 -54 -30 -110 -64 -122 -75 -29 -26 -58 -80 -87 -166 -13 -36 -35 -94 -51
-130 -26 -62 -28 -72 -28 -234 -1 -127 2 -170 12 -173 9 -4 12 -44 12 -154 0
-98 4 -148 10 -144 6 4 10 125 10 331 0 350 1 357 55 428 35 46 65 58 235 96
80 18 161 41 181 51 20 10 59 43 88 75 28 31 55 54 58 50 4 -3 0 -6 -8 -6 -8
-1 1 -7 19 -15 25 -11 32 -20 32 -42 0 -67 -53 -112 -211 -178 -61 -25 -97
-48 -125 -77 l-39 -42 38 32 c44 37 73 53 158 86 35 13 89 38 119 55 74 41 89
39 39 -6 -54 -49 -99 -128 -99 -175 0 -34 3 -38 24 -38 14 0 27 -4 30 -9 4 -5
-12 -7 -36 -3 -36 4 -41 3 -31 -9 21 -25 26 -102 10 -141 -23 -56 -52 -69
-159 -73 -108 -5 -99 1 16 10 69 6 83 11 108 35 21 22 28 38 28 69 0 55 -18
93 -42 85 -10 -3 -18 -1 -18 5 0 6 5 11 12 11 6 0 9 3 6 6 -20 19 -155 -108
-199 -186 -21 -38 -22 -38 -95 -42 -64 -3 -77 -7 -103 -32 -20 -19 -34 -45
-40 -78 -14 -63 -14 -278 -1 -278 6 0 10 49 10 128 0 140 17 199 61 223 15 8
79 13 184 14 172 1 228 12 270 51 l25 23 0 -63 0 -64 -54 -22 c-77 -31 -130
-80 -165 -153 -34 -72 -53 -137 -41 -137 5 0 14 19 21 42 28 105 95 189 179
227 l45 20 3 -144 c3 -145 3 -145 26 -145 l24 0 5 198 c3 118 11 231 21 282 9
47 21 123 27 170 7 59 16 91 29 105 20 22 31 115 46 411 l6 131 75 -41 75 -41
-6 -80 c-3 -44 -15 -152 -26 -240 -21 -169 -24 -221 -10 -170 11 39 47 289 56
386 4 43 10 82 14 89 9 15 110 -26 110 -46 0 -28 -41 -293 -61 -387 -17 -86
-123 -435 -208 -684 l-28 -83 22 0 c19 0 26 15 60 123 92 293 118 380 150 502
18 72 56 193 83 270 l49 140 36 -1 c23 -1 50 -11 72 -28 l35 -27 -6 -82 c-11
-150 -38 -240 -114 -377 -113 -206 -261 -520 -244 -520 9 0 42 57 85 145 38
80 72 145 74 145 5 0 -71 -192 -94 -239 -12 -22 -21 -43 -21 -46 0 -3 101 -5
224 -4 l224 2 13 41 c8 23 40 69 72 105 32 35 70 84 84 108 14 24 28 42 30 39
12 -11 -21 -157 -47 -215 -36 -75 -36 -81 -9 -81 43 0 85 46 116 125 l11 30 1
-38 c1 -21 -8 -56 -19 -77 -17 -33 -18 -40 -5 -40 15 0 39 39 59 98 l12 35 29
-66 28 -67 68 0 69 0 -69 113 c-122 199 -153 277 -181 455 -10 59 -21 86 -62
150 -96 147 -161 217 -238 257 -60 31 -147 129 -138 155 9 27 222 -104 294
-182 45 -48 189 -267 202 -308 7 -19 14 -66 18 -105 3 -38 10 -88 15 -110 12
-47 95 -213 144 -290 19 -30 43 -72 55 -94 l20 -41 121 0 c120 0 120 0 113 23
-11 38 -34 78 -110 194 -90 138 -96 150 -101 186 -4 36 -51 143 -70 158 -28
24 -24 -2 10 -58 20 -32 39 -71 43 -88 l7 -30 -25 30 c-63 77 -167 265 -146
265 6 0 29 15 52 33 23 19 104 78 181 132 77 53 168 120 203 148 l62 50 0 301
-1 301 -27 -65 c-16 -36 -48 -102 -73 -148 l-44 -83 49 -45 c38 -35 47 -49 42
-67 -6 -27 -207 -227 -227 -227 -17 0 -81 92 -83 117 0 10 -11 29 -23 43 -13
13 -23 30 -23 38 0 8 23 40 52 71 113 123 243 354 289 514 21 73 24 78 46 72
18 -4 23 -1 23 15 0 13 -7 20 -20 20 -27 0 -25 18 2 23 l23 4 -21 8 c-24 8
-22 45 2 45 17 0 18 17 2 23 -10 4 -10 7 0 18 7 8 12 42 12 87 0 66 -3 78 -29
111 -41 52 -75 110 -94 159 l-17 42 58 0 59 0 10 -47 c8 -37 10 9 11 210 l2
257 -29 -21 c-29 -21 -90 -38 -143 -39 -22 0 -28 5 -28 23 0 20 4 22 63 22 54
0 69 4 100 28 20 15 37 33 37 40 0 8 -3 8 -12 -1 -7 -7 -16 -12 -20 -12 -15 0
-8 27 12 45 11 10 20 23 20 28 0 6 -10 2 -21 -9 -22 -19 -22 -19 -10 3 6 12
16 25 21 28 6 3 10 27 10 53 l0 47 -19 -31 c-25 -41 -78 -73 -136 -81 -35 -4
-49 -2 -56 8 -15 24 -10 29 32 29 81 0 149 63 149 137 0 125 -94 220 -197 200
-26 -5 -26 -4 -8 9 23 17 98 18 128 3 40 -21 67 -52 67 -79 0 -14 8 -33 18
-41 18 -15 19 -13 19 44 1 46 -2 56 -9 43 -9 -16 -13 -16 -42 12 -17 16 -41
35 -53 41 -31 16 -99 14 -135 -5 -28 -15 -31 -14 -52 5 -33 31 -75 40 -152 31
-74 -8 -265 -55 -297 -72 -22 -11 -21 -30 4 -278 22 -217 -8 -493 -78 -714
-36 -117 -113 -275 -180 -369 -31 -45 -67 -97 -80 -116 -50 -74 -19 1 52 124
125 216 220 495 245 720 15 133 12 354 -6 490 -20 159 -36 188 -110 203 -37 7
-40 10 -57 67 -29 92 -106 302 -143 385 -26 59 -30 78 -21 89 7 8 49 39 95 68
45 29 88 64 94 78 6 13 17 26 25 29 11 5 13 -3 11 -37 -3 -41 -5 -43 -87 -92
-47 -28 -86 -56 -89 -63 -2 -6 19 -65 47 -129 27 -65 55 -147 60 -183 11 -70
24 -118 42 -162 10 -23 16 -27 38 -21 34 8 38 12 21 23 -11 7 -5 9 20 8 40 -1
80 16 80 36 0 18 -31 109 -41 120 -5 6 -9 18 -9 28 0 26 -46 135 -64 154 -9 8
-16 21 -16 27 0 7 11 0 24 -14 49 -53 168 -385 144 -400 -7 -5 -17 -9 -22 -9
-5 0 -6 -3 -3 -6 4 -4 20 -1 37 6 36 15 37 30 10 120 -11 36 -20 66 -20 67 0
1 25 7 55 14 32 7 51 16 44 20 -6 4 -32 0 -56 -8 -61 -21 -78 -4 -33 33 29 25
32 32 27 70 -2 23 -13 59 -23 80 -18 36 -22 39 -56 36 -31 -3 -38 0 -50 24
-22 46 -38 49 -101 19 -31 -16 -57 -32 -57 -37 0 -5 25 5 56 21 31 16 63 27
72 23 13 -4 10 -7 -9 -13 -14 -3 -44 -18 -66 -33 l-40 -27 34 -80 c19 -44 32
-83 29 -86 -8 -9 -6 -13 -70 141 -31 76 -55 144 -53 150 3 6 34 29 69 52 l64
41 28 -52 c30 -58 73 -88 88 -61 10 17 102 23 125 8 24 -15 42 -90 99 -397 2
-11 8 -26 13 -34 12 -19 213 -44 247 -31 33 13 119 13 166 0 20 -6 54 -29 77
-51 26 -26 41 -36 41 -26 0 19 -54 66 -99 84 -35 15 -156 14 -213 -2 -18 -5
-28 -3 -28 4 0 19 73 59 120 65 61 8 158 -9 192 -34 l28 -21 0 135 0 134 -115
102 c-63 56 -116 109 -116 119 -1 9 -1 56 0 105 2 105 10 119 145 263 80 85
86 94 86 133 l0 43 -22 -29 c-12 -16 -61 -76 -108 -134 -138 -168 -140 -171
-140 -266 0 -54 -7 -104 -20 -145 -29 -94 -33 -97 -63 -57 l-26 34 24 49 c19
37 25 64 25 113 0 75 8 89 120 207 37 39 88 97 113 130 26 33 59 76 74 95 25
32 25 33 4 15 -13 -11 -44 -46 -67 -78 -56 -75 -233 -262 -241 -254 -3 4 6 22
21 41 32 43 32 50 0 65 -23 10 -30 9 -48 -8 -21 -20 -22 -20 -51 -1 -17 11
-38 20 -48 20 -25 0 -17 22 14 37 17 9 19 13 7 13 -10 0 -27 -13 -40 -30 -13
-18 -31 -30 -45 -30 -32 0 -29 13 13 49 26 23 42 30 57 26 37 -11 120 -37 158
-50 35 -12 38 -11 86 25 27 21 62 57 77 81 16 24 51 74 77 110 27 37 49 72 49
79 0 6 -36 -39 -81 -102 -81 -114 -111 -147 -162 -174 -25 -13 -51 -10 -76 12
-6 6 73 69 84 66 20 -4 61 51 149 202 l86 149 0 131 0 130 -37 -36 c-50 -47
-179 -137 -214 -150 -32 -11 -122 3 -175 28 -27 13 -40 14 -59 6 -27 -12 -84
-82 -158 -192 -28 -41 -67 -95 -87 -120 -20 -25 -45 -58 -55 -75 l-17 -30 23
30 c13 16 42 52 64 80 23 27 56 73 75 100 56 84 128 172 155 189 23 15 27 15
66 -4 23 -12 69 -24 107 -27 l67 -5 79 51 c43 29 80 51 82 49 9 -9 -64 -122
-80 -124 -28 -4 -32 -11 -66 -116 -31 -99 -59 -146 -77 -135 -7 5 -1 32 18 79
31 81 36 129 15 147 -17 14 -161 61 -186 61 -31 0 -65 -36 -196 -207 -71 -92
-137 -176 -146 -185 -10 -10 -19 -19 -19 -20 -1 -2 6 -20 15 -42 23 -56 20
-56 -14 -2 l-30 47 44 68 c24 38 49 79 56 92 22 43 -7 5 -57 -73 -38 -59 -52
-75 -61 -66 -13 13 2 36 88 138 50 59 94 120 87 120 -2 0 -27 -30 -56 -67 -28
-38 -71 -90 -96 -118 l-45 -50 -37 37 -36 37 28 43 c16 24 74 104 130 178 98
131 101 136 97 180 -3 38 0 49 21 68 38 36 87 28 109 -18 10 -19 18 -29 18
-22 0 7 -7 26 -15 43 -15 27 -14 32 3 57 10 15 22 33 26 40 6 9 -118 12 -606
12 l-613 0 121 -64 c317 -166 599 -418 706 -629 16 -33 32 -57 34 -54 3 3 -2
19 -11 37 -9 18 -14 34 -12 36 6 6 90 -93 107 -126 l13 -25 -23 20 c-18 16
-15 7 14 -45 31 -54 76 -146 76 -154 0 -1 -40 0 -89 2 -84 4 -89 3 -96 -17 -3
-11 -9 -21 -13 -21 -4 0 -36 43 -72 95 -36 52 -72 95 -80 95 -8 0 -35 -14 -60
-30 -25 -16 -50 -30 -56 -30 -11 0 -79 80 -162 190 l-41 54 36 46 c55 68 60
80 14 30 -68 -73 -67 -70 -9 -147 75 -100 139 -174 155 -180 7 -3 36 10 64 28
l52 33 24 -30 c13 -16 46 -60 73 -98 47 -66 55 -94 23 -82 -8 3 -12 2 -9 -3 3
-5 -30 -32 -74 -61 -49 -32 -80 -59 -80 -70 0 -9 14 -48 31 -86 41 -89 111
-279 139 -376 22 -76 23 -77 61 -83 82 -14 94 -47 108 -300 10 -176 -1 -415
-24 -534 -41 -211 -167 -500 -276 -632 -114 -137 -156 -176 -188 -171 -55 8
-143 -119 -127 -183 4 -14 16 -35 27 -46 19 -19 29 -19 77 -2 8 3 10 0 6 -10
-8 -22 -82 -49 -114 -42 -87 19 -83 142 7 232 64 62 195 230 238 302 6 10 4
12 -6 6 -8 -4 -2 5 12 21 70 76 179 348 218 541 25 123 26 159 5 171 -14 8
-17 35 -19 178 -4 255 -43 478 -125 704 -50 139 -80 201 -132 280 l-44 65 35
51 c31 45 96 104 104 93 2 -2 14 -19 26 -36 12 -18 25 -33 29 -33 4 0 20 16
35 35 27 34 27 35 11 67 l-17 33 -9 -24 c-6 -17 -5 -27 3 -32 6 -4 8 -12 4
-19 -6 -10 -11 -9 -21 5 -10 13 -10 22 -2 35 6 9 8 25 5 33 -5 14 -11 12 -38
-13 -18 -16 -37 -26 -42 -23 -10 6 13 28 37 36 6 2 8 8 4 12 -10 10 -68 -15
-68 -29 0 -7 5 -17 12 -24 14 -14 -11 -38 -52 -48 -14 -4 -40 -20 -59 -35
l-34 -28 -41 57 c-22 31 -40 61 -38 66 8 25 -172 213 -306 320 -108 86 -354
247 -437 286 -44 20 -127 55 -185 76 l-105 39 -175 0 -175 -1 -110 -38 c-60
-22 -150 -58 -200 -81 -101 -47 -311 -181 -428 -274 -43 -35 -81 -60 -85 -57
-7 8 -5 10 107 100 52 41 121 90 153 108 31 18 58 36 58 40 0 19 -191 -112
-298 -204 -18 -15 -44 -28 -57 -28 -21 0 -25 -5 -25 -28 0 -20 -14 -42 -53
-80 -29 -29 -57 -52 -62 -52 -5 0 -18 9 -30 20 l-21 20 -42 -51 c-42 -52 -50
-69 -32 -69 6 0 10 5 10 11 0 6 14 29 32 51 l32 41 18 -23 c18 -22 17 -23 -43
-92 -70 -82 -159 -212 -217 -318 -43 -79 -86 -180 -79 -187 2 -2 33 47 68 109
106 189 311 478 339 478 18 0 43 -49 33 -63 -6 -6 -39 -48 -74 -92 -88 -109
-172 -240 -235 -364 -61 -119 -137 -344 -139 -411 -1 -25 -9 -80 -19 -123 -40
-188 -37 -495 8 -682 64 -265 200 -539 387 -779 82 -105 94 -111 200 -110 49
1 89 -2 89 -7 0 -4 -10 -15 -22 -23 -17 -12 -49 -16 -134 -16 l-111 0 -59 62
c-196 205 -344 452 -426 705 -48 147 -69 180 -32 50 65 -232 201 -482 367
-676 l55 -65 -46 -41 -47 -42 75 -78 c41 -42 88 -84 104 -92 28 -14 75 -14
122 2 15 4 30 -1 52 -20 18 -15 32 -30 32 -34 0 -13 -101 -42 -123 -35 -43 13
-113 68 -195 153 l-83 85 -21 -22 -21 -21 83 -78 c45 -43 88 -78 94 -78 18 0
109 -49 110 -60 1 -11 -35 -30 -76 -40 -24 -6 -34 0 -78 45 -28 28 -90 98
-137 153 -48 56 -130 147 -183 202 -91 95 -190 233 -190 267 0 15 59 74 135
135 32 25 38 34 28 44 -11 11 -13 10 -13 -4 0 -9 -24 -34 -53 -56 -29 -21 -73
-60 -97 -85 -28 -29 -52 -46 -64 -44 -25 4 -132 238 -108 238 5 0 22 -30 37
-66 31 -73 52 -87 106 -75 41 10 131 54 146 73 24 29 26 115 4 180 -122 371
-131 701 -31 1093 34 131 109 361 166 508 18 46 18 47 -1 66 -11 11 -51 36
-88 56 -93 51 -137 47 -207 -19 -79 -74 -85 -59 -24 55 30 55 54 105 54 110 0
6 5 7 10 4 9 -5 12 3 12 25 0 3 -3 16 -6 30 -7 24 -6 24 8 6 21 -26 20 -56 -1
-86 -16 -24 -16 -24 1 -11 29 24 53 81 66 158 22 132 91 243 259 416 157 162
313 278 516 384 l120 62 -617 1 -616 0 13 -27 c8 -16 22 -48 33 -73 24 -56 98
-144 271 -323 l134 -139 -20 -20 -21 -20 -39 43 c-22 24 -54 60 -71 79 -17 19
-32 32 -32 27 0 -4 29 -41 65 -82 54 -62 64 -78 56 -93 -27 -50 -35 -46 -105
59 -38 55 -70 98 -73 95 -5 -5 60 -105 108 -166 l27 -36 -29 -44 c-16 -24 -34
-61 -41 -82 -6 -21 -14 -38 -18 -38 -4 0 -11 23 -14 52 -9 67 -22 89 -100 176
-36 40 -66 77 -66 83 0 17 -93 111 -139 141 -25 15 -59 28 -76 28 -17 0 -40 6
-51 14 -11 8 -78 89 -149 180 -72 91 -136 166 -142 166 -9 0 -13 -21 -13 -74z
m748 33 c6 -49 -58 -65 -73 -18 -9 27 13 51 44 47 20 -2 27 -9 29 -29z m613
-14 c-1 -15 -24 -12 -29 3 -3 9 2 13 12 10 10 -1 17 -7 17 -13z m2599 -1 c0
-17 -22 -14 -28 4 -2 7 3 12 12 12 9 0 16 -7 16 -16z m-2850 -4 c0 -5 -4 -10
-10 -10 -5 0 -10 5 -10 10 0 6 5 10 10 10 6 0 10 -4 10 -10z m165 -20 c-5 -8
-11 -8 -17 -2 -6 6 -7 16 -3 22 5 8 11 8 17 2 6 -6 7 -16 3 -22z m-635 -20 c0
-5 -4 -10 -10 -10 -5 0 -10 5 -10 10 0 6 5 10 10 10 6 0 10 -4 10 -10z m725 0
c3 -5 1 -10 -4 -10 -6 0 -11 5 -11 10 0 6 2 10 4 10 3 0 8 -4 11 -10z m2495 0
c0 -5 -4 -10 -10 -10 -5 0 -10 5 -10 10 0 6 5 10 10 10 6 0 10 -4 10 -10z
m420 -14 c6 -8 10 -25 8 -38 -2 -18 -9 -23 -33 -23 -24 0 -31 5 -33 23 -4 25
13 52 33 52 7 0 18 -7 25 -14z m-3413 -42 c15 -23 15 -29 2 -52 -31 -54 -101
-40 -101 21 0 59 66 80 99 31z m2853 6 c0 -5 -4 -10 -10 -10 -5 0 -10 5 -10
10 0 6 5 10 10 10 6 0 10 -4 10 -10z m-2645 -60 c3 -5 -1 -10 -10 -10 -9 0
-13 5 -10 10 3 6 8 10 10 10 2 0 7 -4 10 -10z m2935 -10 c0 -5 -4 -10 -10 -10
-5 0 -10 5 -10 10 0 6 5 10 10 10 6 0 10 -4 10 -10z m152 -17 c35 -31 10 -93
-38 -93 -48 0 -70 55 -37 92 20 22 51 23 75 1z m-3092 -64 c0 -14 -5 -19 -17
-17 -26 5 -29 38 -4 38 15 0 21 -6 21 -21z m1665 -39 c135 -34 296 -122 408
-221 90 -79 172 -224 223 -395 31 -106 34 -223 9 -349 -9 -44 -20 -140 -25
-213 -14 -191 -37 -236 -150 -288 -116 -55 -215 -107 -254 -134 -49 -33 -189
-168 -204 -196 -5 -10 38 29 96 88 l107 106 175 85 c178 87 228 123 249 180 6
16 11 74 11 130 0 96 12 153 24 117 14 -46 26 -240 17 -294 -17 -97 -32 -111
-181 -166 -97 -36 -147 -61 -225 -113 -112 -75 -162 -125 -240 -242 -43 -62
-85 -121 -96 -131 -10 -9 -40 -18 -66 -20 l-48 -3 44 9 c24 5 50 15 59 22 26
22 54 97 47 126 -6 25 -7 25 -31 -18 -14 -24 -32 -49 -42 -56 -9 -8 -12 -14
-6 -14 13 0 36 25 58 65 l17 30 -6 -30 c-12 -55 -39 -89 -83 -105 -56 -19 -64
-9 -70 90 -2 44 -8 80 -13 80 -5 0 -9 -38 -9 -84 0 -105 -11 -121 -79 -112
-56 8 -70 21 -140 126 -130 197 -287 313 -525 385 -106 32 -135 57 -159 142
-35 120 -37 143 -17 203 29 87 35 160 16 204 -17 41 -19 79 -7 111 6 16 12 6
29 -45 31 -100 35 -135 21 -246 -14 -117 -6 -162 38 -214 37 -45 79 -69 228
-131 142 -59 243 -126 333 -222 51 -55 112 -163 112 -200 0 -38 28 -84 59 -97
17 -7 34 -10 38 -6 3 3 -1 6 -9 6 -21 0 -68 46 -68 66 0 15 4 14 28 -7 l27
-24 -24 27 c-13 15 -28 25 -32 22 -5 -3 -7 1 -4 8 3 7 -10 45 -28 83 -27 55
-54 89 -123 155 -114 109 -154 135 -320 205 -210 89 -232 123 -220 333 6 106
4 127 -19 217 -31 125 -31 171 0 296 79 312 211 478 475 597 196 89 388 110
575 62z m2228 -14 c7 -18 -39 -193 -60 -224 -8 -13 -12 -26 -10 -29 3 -3 13 9
22 26 8 17 18 31 20 31 13 0 3 -40 -16 -64 -17 -21 -24 -24 -35 -15 -9 7 -12
21 -8 38 6 24 6 25 -8 7 -24 -31 -31 -1 -8 37 11 18 31 67 45 108 35 102 33
99 44 99 5 0 11 -6 14 -14z m-243 -31 c0 -8 -7 -15 -15 -15 -8 0 -15 7 -15 15
0 8 7 15 15 15 8 0 15 -7 15 -15z m-4185 -154 c-8 -8 -35 22 -35 38 0 12 5 10
20 -9 10 -14 17 -27 15 -29z m4055 -1 c0 -5 -5 -10 -11 -10 -5 0 -7 5 -4 10 3
6 8 10 11 10 2 0 4 -4 4 -10z m-59 -63 c-13 -13 -26 -3 -16 12 3 6 11 8 17 5
6 -4 6 -10 -1 -17z m283 13 c32 -12 51 -50 42 -83 -3 -14 -19 -39 -35 -56 -32
-35 -73 -41 -108 -16 -16 12 -22 12 -26 2 -3 -6 -4 14 -3 47 2 52 6 62 34 87
34 31 55 35 96 19z m-1216 -236 c56 -58 107 -116 113 -128 6 -11 -20 11 -56
49 -37 39 -94 96 -128 127 -34 32 -55 58 -47 58 8 0 61 -48 118 -106z m-2009
38 c-75 -78 -232 -280 -314 -402 -98 -147 -174 -302 -225 -458 -43 -132 -45
-142 -30 -142 6 0 10 7 10 15 0 74 200 539 222 517 6 -6 -14 -55 -50 -128 -61
-121 -109 -246 -137 -355 -9 -33 -24 -77 -35 -97 -48 -93 -72 -486 -42 -697
17 -120 90 -333 162 -475 56 -109 90 -163 224 -359 68 -100 47 -88 -32 18
-177 239 -287 460 -355 710 -31 116 -31 116 -31 381 -1 226 2 277 18 345 10
44 18 97 17 118 -3 61 73 284 143 419 82 160 182 305 311 449 27 31 79 88 114
128 35 40 66 69 69 66 3 -3 -15 -27 -39 -53z m-1109 -52 c0 -5 -4 -10 -10 -10
-5 0 -10 5 -10 10 0 6 5 10 10 10 6 0 10 -4 10 -10z m1000 0 c0 -15 -31 -60
-41 -60 -15 0 -10 32 8 52 18 20 33 24 33 8z m3218 -10 c38 -23 76 -80 62 -94
-6 -6 -26 -3 -52 7 -42 16 -76 14 -133 -9 -46 -18 -97 -57 -124 -94 l-29 -40
-11 31 c-18 52 -13 65 36 108 68 58 138 94 173 89 16 -2 29 -2 28 1 -2 27 8
27 50 1z m116 1 c3 -5 -4 -21 -15 -35 -20 -25 -22 -26 -34 -9 -9 12 -10 23 -4
35 10 19 44 24 53 9z m-339 -10 c3 -5 1 -12 -5 -16 -5 -3 -10 1 -10 9 0 18 6
21 15 7z m-995 -41 c0 -5 -4 -10 -10 -10 -5 0 -10 5 -10 10 0 6 5 10 10 10 6
0 10 -4 10 -10z m-2992 -29 c3 -8 -1 -12 -9 -9 -7 2 -15 10 -17 17 -3 8 1 12
9 9 7 -2 15 -10 17 -17z m247 -16 c0 -16 -7 -20 -35 -20 -29 0 -36 4 -38 23
-3 21 0 23 35 20 30 -2 38 -7 38 -23z m2840 15 c3 -5 1 -10 -4 -10 -6 0 -11 5
-11 10 0 6 2 10 4 10 3 0 8 -4 11 -10z m-2937 -21 c2 -11 -10 -19 -36 -27 -24
-7 -54 -28 -76 -52 -30 -33 -36 -48 -36 -84 0 -29 7 -52 21 -70 12 -15 23 -25
26 -22 3 2 -4 15 -16 27 -49 52 -9 153 72 184 36 14 51 15 86 5 l41 -11 -42
-77 c-23 -42 -56 -94 -74 -114 -30 -33 -54 -90 -54 -127 0 -8 -18 23 -41 69
-35 72 -40 92 -37 135 3 27 8 59 12 70 4 11 0 8 -8 -6 -32 -55 -30 -98 9 -178
19 -41 34 -76 31 -78 -5 -6 -93 111 -109 145 -8 16 -8 25 0 30 6 4 20 25 31
48 28 55 149 155 182 151 8 -1 16 -9 18 -18z m4100 -6 c30 -5 32 -9 34 -47 5
-100 -2 -133 -38 -175 -17 -21 -35 -31 -53 -31 -40 0 -42 6 -19 57 17 38 20
61 16 130 -4 73 -2 83 11 78 9 -4 31 -9 49 -12z m-128 -54 c0 -5 -7 -9 -15 -9
-15 0 -20 12 -9 23 8 8 24 -1 24 -14z m-850 -65 c40 -49 59 -81 55 -92 -4 -12
-12 -7 -32 24 -14 21 -44 60 -65 85 -21 26 -38 50 -38 53 0 20 26 -3 80 -70z
m587 57 c12 -1 29 -8 37 -17 19 -18 21 -70 4 -81 -8 -5 11 -10 47 -13 59 -5
60 -5 83 -50 23 -47 105 -251 153 -382 l28 -78 -29 0 c-16 0 -36 7 -44 15 -19
19 -47 113 -81 265 -37 166 -35 164 -125 171 -41 3 -84 10 -95 14 -19 9 -19 8
-2 -9 25 -25 12 -34 -14 -10 -31 28 -58 87 -66 140 l-6 46 44 -5 c24 -3 54 -6
66 -6z m-847 -11 c0 -5 -5 -10 -11 -10 -5 0 -7 5 -4 10 3 6 8 10 11 10 2 0 4
-4 4 -10z m-2070 -60 c0 -5 -2 -10 -4 -10 -3 0 -8 5 -11 10 -3 6 -1 10 4 10 6
0 11 -4 11 -10z m-510 -61 c43 -22 80 -46 83 -53 3 -6 -20 -70 -50 -141 -171
-406 -237 -740 -212 -1068 11 -147 17 -180 77 -420 l46 -189 -24 -19 c-37 -28
-131 -61 -157 -54 -15 3 -32 23 -49 58 -14 28 -39 66 -55 82 -15 17 -35 46
-43 66 -17 41 -61 214 -71 279 -17 114 -48 211 -76 241 -38 40 -36 58 7 110
l36 43 -7 107 c-6 84 -4 112 8 135 8 16 17 70 20 119 3 50 13 112 22 139 13
39 15 57 6 91 -13 53 -1 104 66 270 47 118 49 120 90 135 24 9 62 34 85 57 70
66 92 68 198 12z m2745 21 c3 -5 -1 -10 -10 -10 -9 0 -13 5 -10 10 3 6 8 10
10 10 2 0 7 -4 10 -10z m190 0 c-3 -5 -10 -10 -16 -10 -5 0 -9 5 -9 10 0 6 7
10 16 10 8 0 12 -4 9 -10z m743 -54 c42 -31 67 -43 81 -39 30 8 26 -4 -7 -21
-41 -21 -97 -25 -97 -6 -1 8 -13 34 -28 57 -44 69 -34 71 51 9z m-719 -38 c14
-26 23 -50 19 -54 -18 -17 -86 75 -72 97 10 17 27 4 53 -43z m-2474 32 c3 -5
1 -10 -4 -10 -6 0 -11 5 -11 10 0 6 2 10 4 10 3 0 8 -4 11 -10z m132 -32 c-3
-8 -6 -5 -6 6 -1 11 2 17 5 13 3 -3 4 -12 1 -19z m1893 -86 c-18 -81 -25 -53
-9 35 10 55 15 69 17 48 2 -16 -1 -54 -8 -83z m167 62 c-2 -2 -12 -1 -22 3
-18 6 -18 7 1 13 17 7 33 -5 21 -16z m-107 -15 c0 -11 -10 -38 -21 -61 -12
-23 -28 -58 -35 -77 l-14 -36 5 40 c13 94 65 201 65 134z m1267 9 c32 -30 29
-58 -12 -104 l-34 -39 -1 40 c0 22 -7 49 -15 59 -19 25 -19 36 -1 36 8 0 16 7
20 15 7 20 16 19 43 -7z m-103 -29 c44 -20 63 -119 27 -139 -33 -17 -38 -12
-65 61 -33 89 -24 106 38 78z m-671 -142 c81 -202 134 -424 152 -637 8 -88
-19 -338 -38 -354 -7 -6 -26 -64 -42 -128 -15 -65 -30 -118 -32 -118 -2 0 -17
7 -33 15 -17 9 -32 15 -35 15 -57 -2 -58 7 -21 121 18 57 39 138 45 179 20
124 17 119 75 145 29 13 56 32 60 42 13 34 -14 252 -50 398 -34 138 -70 245
-115 344 -42 90 -49 122 -25 102 8 -7 34 -62 59 -124z m-2493 113 c0 -5 -2
-10 -4 -10 -3 0 -8 5 -11 10 -3 6 -1 10 4 10 6 0 11 -4 11 -10z m2217 -26 c-9
-9 -28 6 -21 18 4 6 10 6 17 -1 6 -6 8 -13 4 -17z m-221 -331 c-33 -118 -53
-167 -77 -189 -22 -20 -26 -8 -5 15 21 25 36 80 43 159 4 48 11 76 20 79 17 7
16 28 -3 83 -18 51 -14 109 13 167 l17 38 9 -127 c9 -122 8 -131 -17 -225z
m903 268 c26 -79 21 -93 -7 -19 -29 79 -36 105 -24 93 5 -5 19 -39 31 -74z
m-2769 9 c0 -50 -19 -142 -32 -155 -11 -10 -4 137 8 182 9 34 24 17 24 -27z
m3209 24 c34 -28 67 -95 76 -152 6 -40 2 -35 -28 48 -13 35 -35 69 -60 93 -45
42 -35 51 12 11z m176 15 c10 -15 -1 -23 -20 -15 -9 3 -13 10 -10 16 8 13 22
13 30 -1z m-3645 -20 c0 -5 -7 -9 -15 -9 -15 0 -20 12 -9 23 8 8 24 -1 24 -14z
m3485 -57 c14 -21 30 -60 37 -88 l12 -50 58 -1 c77 -3 135 -19 148 -43 10 -18
8 -18 -27 3 -32 18 -52 22 -124 22 l-87 -1 -12 54 c-8 38 -23 66 -46 91 l-35
36 30 -50 c33 -54 52 -135 32 -135 -6 0 -11 11 -11 24 0 14 -16 55 -35 92 -33
63 -34 68 -19 85 21 24 45 12 79 -39z m-1095 2 c0 -8 -5 -12 -10 -9 -6 4 -8
11 -5 16 9 14 15 11 15 -7z m981 -100 c34 -110 35 -124 9 -124 -11 0 -20 1
-20 3 0 2 -16 48 -35 103 -19 54 -35 100 -35 101 0 3 35 10 45 9 5 -2 22 -43
36 -92z m-1101 32 c0 -3 -4 -8 -10 -11 -5 -3 -10 -1 -10 4 0 6 5 11 10 11 6 0
10 -2 10 -4z m645 -73 c8 -26 13 -49 11 -50 -4 -4 -46 110 -46 123 1 16 21
-25 35 -73z m-2965 57 c0 -5 -4 -10 -10 -10 -5 0 -10 5 -10 10 0 6 5 10 10 10
6 0 10 -4 10 -10z m3000 -11 c0 -5 -4 -9 -10 -9 -5 0 -10 7 -10 16 0 8 5 12
10 9 6 -3 10 -10 10 -16z m-615 1 c3 -5 1 -10 -4 -10 -6 0 -11 5 -11 10 0 6 2
10 4 10 3 0 8 -4 11 -10z m-2195 -10 c0 -5 -4 -10 -10 -10 -5 0 -10 5 -10 10
0 6 5 10 10 10 6 0 10 -4 10 -10z m2345 -10 c0 -8 -8 -16 -17 -18 -13 -2 -18
3 -18 18 0 15 5 20 18 18 9 -2 17 -10 17 -18z m-3505 -5 c0 -8 -4 -15 -10 -15
-5 0 -10 7 -10 15 0 8 5 15 10 15 6 0 10 -7 10 -15z m3119 -35 c1 -13 0 -13
-9 0 -5 8 -9 24 -9 35 l0 20 9 -20 c5 -11 9 -27 9 -35z m-2079 10 c0 -5 -2
-10 -4 -10 -3 0 -8 5 -11 10 -3 6 -1 10 4 10 6 0 11 -4 11 -10z m-1166 -65
c-51 -45 -70 -45 -22 0 21 19 43 35 50 35 6 0 -6 -16 -28 -35z m3342 -27 c10
-18 20 -60 24 -93 l7 -60 2 52 c0 28 -3 63 -9 77 -12 32 10 36 39 7 43 -43 50
-122 26 -297 -29 -220 -81 -397 -137 -466 l-23 -28 -40 34 -39 33 26 59 c14
32 31 75 37 94 25 81 50 277 57 443 4 97 8 177 10 177 2 0 11 -15 20 -32z
m-3110 -3 c-3 -9 -29 -27 -58 -41 l-53 -25 63 5 c53 4 63 2 58 -11 -3 -8 -6
-20 -6 -27 0 -11 -11 -10 -52 1 -63 16 -98 10 -139 -24 -62 -53 -77 -132 -36
-194 23 -35 121 -93 143 -85 13 5 27 -31 15 -39 -14 -8 -155 70 -174 97 -25
33 -33 114 -18 161 11 32 57 82 107 115 10 7 1 3 -21 -8 -59 -29 -104 -75
-130 -133 -13 -29 -24 -45 -24 -36 -1 10 12 42 28 72 24 46 26 54 11 50 -10
-3 -27 0 -39 7 -17 9 -19 14 -11 31 11 20 11 20 40 -1 l30 -21 32 25 c47 35
132 71 125 52 -4 -9 17 -1 51 19 60 35 68 36 58 10z m834 10 c0 -8 -7 -15 -15
-15 -8 0 -15 7 -15 15 0 8 7 15 15 15 8 0 15 -7 15 -15z m324 -87 c8 -51 17
-147 20 -213 6 -138 32 -271 71 -368 15 -38 25 -71 22 -73 -10 -11 -68 151
-88 243 -11 54 -26 172 -34 263 -8 91 -17 182 -20 203 -3 20 -1 37 4 37 5 0
16 -42 25 -92z m-78 60 c-3 -13 -8 -52 -11 -88 l-4 -65 10 62 c5 35 15 75 22
90 11 26 12 23 14 -37 12 -319 65 -591 131 -663 16 -18 16 -20 -3 -34 -47 -35
-52 -35 -75 3 -12 19 -20 38 -17 41 3 3 15 -10 26 -28 12 -19 21 -28 21 -21 0
20 -40 73 -51 67 -5 -3 -15 9 -23 27 -10 24 -15 28 -15 13 -1 -24 34 -103 57
-129 13 -15 14 -18 2 -14 -22 7 -77 104 -100 178 -21 67 -77 364 -81 435 -5
83 0 104 37 145 41 45 70 54 60 18z m-1496 -18 c-6 -12 -14 -19 -17 -17 -2 3
1 15 7 27 6 12 14 19 17 17 2 -3 -1 -15 -7 -27z m3476 -117 c-9 -183 -19 -250
-57 -382 -32 -110 -66 -190 -100 -231 -16 -20 -15 -14 7 30 65 134 109 317
131 552 9 98 19 178 21 178 2 0 1 -66 -2 -147z m-2081 111 c-31 -34 -38 -83
-26 -184 6 -46 8 -86 5 -89 -3 -3 -17 7 -30 22 -21 25 -24 38 -24 108 0 86 14
126 52 153 35 25 50 19 23 -10z m2320 -40 c19 -40 21 -194 3 -212 -25 -25 -36
-14 -27 31 20 102 8 180 -34 226 l-22 24 32 -18 c18 -11 39 -33 48 -51z m125
36 c0 -5 -4 -10 -10 -10 -5 0 -10 5 -10 10 0 6 5 10 10 10 6 0 10 -4 10 -10z
m950 -57 c49 -50 74 -118 66 -177 -9 -57 -57 -123 -104 -143 -47 -20 -96 -4
-157 50 -47 40 -75 106 -75 174 0 49 -34 67 -108 59 -80 -8 -49 7 88 43 72 19
141 30 184 31 66 0 70 -1 106 -37z m-1110 -98 c0 -81 -10 -128 -24 -114 -3 2
-2 55 1 117 7 133 23 130 23 -3z m-3296 79 c26 -26 18 -37 -10 -15 -15 12 -38
21 -51 21 -32 0 -80 -26 -93 -49 -17 -32 -12 -86 11 -115 20 -25 27 -27 80
-24 45 2 55 0 47 -9 -6 -7 -30 -13 -54 -13 -63 0 -96 32 -105 101 l-6 54 -2
-52 c-1 -42 4 -57 24 -81 14 -17 39 -33 55 -37 17 -4 30 -11 30 -16 0 -10 -43
-2 -73 13 -27 14 -57 69 -57 105 0 45 16 74 57 106 43 32 120 38 147 11z
m4586 -52 c34 -25 70 -98 70 -144 0 -30 -8 -47 -34 -75 -29 -32 -41 -38 -75
-38 -22 0 -46 6 -53 13 -11 11 -5 12 27 7 32 -5 47 -2 75 17 31 21 35 29 38
75 5 88 -45 149 -131 161 -31 4 -37 7 -22 12 25 9 72 -4 105 -28z m-1208 -24
c-9 -9 -12 -4 -11 23 0 32 1 33 11 11 8 -17 8 -26 0 -34z m-2452 -1 c0 -52
-17 -67 -25 -24 -4 20 -4 44 -1 53 9 24 26 6 26 -29z m-190 23 c0 -5 -4 -10
-10 -10 -5 0 -10 5 -10 10 0 6 5 10 10 10 6 0 10 -4 10 -10z m2244 -153 c-2
-196 -47 -308 -177 -441 -99 -101 -169 -139 -303 -162 -123 -21 -145 -29 -184
-69 -46 -48 -31 -55 25 -11 34 26 67 39 123 51 135 29 185 46 239 82 74 49
197 185 233 256 45 89 36 48 -10 -51 -54 -115 -109 -185 -173 -222 -29 -17
-109 -48 -179 -70 -202 -64 -308 -158 -342 -302 -11 -47 1 -31 20 25 24 72 35
87 115 154 115 95 132 94 38 -4 -89 -92 -119 -147 -134 -239 -4 -26 2 -15 18
33 32 95 52 124 144 215 77 76 80 79 193 117 201 68 278 110 328 180 l28 38
44 -40 45 -39 -41 -37 c-24 -21 -90 -57 -154 -86 -207 -90 -253 -132 -302
-275 -11 -34 -45 -97 -75 -139 -30 -42 -62 -89 -70 -106 -12 -26 -10 -25 19
10 40 50 120 128 183 179 33 27 56 57 72 95 13 31 31 71 39 90 21 48 28 31 14
-31 -22 -94 -43 -121 -152 -205 -95 -72 -109 -87 -185 -202 -94 -142 -115
-166 -163 -191 -89 -46 -175 -49 -240 -8 -19 12 -46 22 -60 22 -27 1 -55 39
-155 211 -40 68 -83 124 -135 177 -61 61 -82 90 -100 138 -12 33 -20 63 -17
66 6 7 42 -48 80 -121 14 -28 44 -68 67 -90 54 -51 119 -143 159 -223 17 -34
48 -81 68 -103 l36 -40 21 20 c32 30 71 41 147 41 51 0 81 -6 110 -21 l41 -20
26 23 c13 13 42 59 62 103 21 44 63 117 93 163 30 45 69 119 87 165 18 45 48
103 66 130 39 55 40 57 15 57 -34 0 -120 -104 -166 -203 -23 -50 -46 -103 -49
-117 -4 -14 18 25 47 86 30 61 59 114 65 118 6 4 -7 -28 -28 -71 -22 -43 -65
-140 -96 -216 -55 -133 -103 -217 -125 -217 -5 0 -24 7 -42 17 -49 25 -174 21
-233 -7 l-46 -23 -23 24 c-32 32 -186 325 -224 424 -52 135 -115 191 -309 274
-67 28 -119 58 -150 86 l-46 42 43 31 c24 18 47 32 50 32 3 -1 21 -21 38 -45
43 -57 169 -135 276 -169 147 -47 278 -185 327 -345 24 -75 24 -81 7 -81 -7 0
-21 25 -32 55 -29 87 -145 248 -198 277 -12 6 -2 -11 26 -42 56 -65 95 -137
138 -253 17 -49 38 -91 45 -94 8 -3 14 -15 14 -27 0 -11 5 -28 11 -36 8 -11 9
-3 5 30 -5 39 -4 43 8 28 7 -10 18 -18 24 -18 6 0 13 -6 15 -12 4 -10 8 -10
15 1 8 11 12 10 21 -5 9 -17 12 -17 22 -4 8 11 12 12 15 3 4 -10 10 -10 25 0
16 10 21 9 28 -2 6 -9 15 -11 27 -6 32 13 64 14 64 2 0 -7 7 -3 16 8 12 16 17
17 23 7 14 -22 20 8 11 53 -7 38 -8 38 -9 8 -1 -40 -18 -52 -30 -21 -10 23
-10 22 -10 -4 -1 -32 -8 -35 -27 -10 -13 16 -13 16 -14 0 0 -27 -30 -22 -31 5
l0 22 -11 -22 c-15 -32 -44 -29 -56 5 -9 24 -11 24 -11 5 -1 -22 -18 -40 -28
-30 -3 4 -9 21 -13 39 l-8 33 -1 -32 c-1 -39 -17 -43 -33 -8 -9 19 -14 22 -21
13 -5 -8 -7 -1 -3 20 8 44 -35 174 -78 238 -19 27 -57 76 -86 107 -58 64 -53
74 12 24 59 -45 134 -141 158 -202 17 -41 19 -44 14 -15 -10 54 -37 99 -99
168 -67 73 -88 85 -204 119 -159 46 -238 101 -305 213 -56 93 -125 297 -113
334 2 6 12 -23 22 -64 19 -79 61 -182 89 -215 17 -20 17 -20 11 5 -6 23 -5 23
13 -5 11 -16 47 -60 81 -97 73 -79 161 -126 311 -164 69 -18 107 -35 139 -60
24 -19 46 -32 49 -30 10 10 -35 67 -63 80 -17 9 -65 20 -106 27 -41 6 -87 17
-104 25 -29 13 -28 13 25 8 96 -9 167 -26 199 -45 39 -23 89 -100 97 -148 3
-20 14 -63 25 -96 20 -63 19 -46 -4 82 -25 132 -90 193 -227 213 -219 31 -231
35 -308 98 -38 31 -95 97 -129 148 -12 18 -12 18 -7 -1 6 -20 5 -20 -10 -1
-43 52 -95 259 -96 374 0 39 2 72 5 72 3 0 61 -16 128 -36 270 -79 412 -205
555 -494 92 -187 107 -210 135 -210 22 0 22 0 -1 13 -13 6 -35 32 -49 57 l-27
45 42 -37 c45 -40 72 -46 112 -23 40 23 46 17 15 -15 -16 -16 -36 -30 -44 -31
-10 0 -12 -2 -4 -6 7 -2 26 5 43 17 16 12 30 18 30 13 0 -12 45 87 60 132 27
84 140 266 202 326 58 57 133 111 213 155 78 43 275 106 290 92 6 -5 9 -54 9
-111z m1046 63 c1 -46 12 -72 29 -66 12 5 11 2 -3 -9 -16 -12 -18 -22 -12 -61
3 -26 3 -45 0 -42 -3 4 -10 37 -14 75 -5 37 -12 88 -15 113 -5 33 -4 41 4 30
6 -8 11 -26 11 -40z m69 -66 c6 -44 12 -95 13 -114 l3 -35 32 34 32 35 76 -19
c65 -16 82 -17 121 -7 53 14 66 9 41 -16 -15 -14 -37 -17 -125 -17 -100 -1
-110 -3 -142 -27 -36 -27 -120 -48 -120 -30 0 26 14 42 36 42 35 0 39 20 25
119 -22 155 -22 158 -12 135 5 -12 14 -57 20 -100z m-509 98 c0 -13 -12 -22
-22 -16 -10 6 -1 24 13 24 5 0 9 -4 9 -8z m-2846 -28 c30 -30 13 -74 -29 -74
-27 0 -45 18 -45 45 0 42 44 59 74 29z m2711 -34 c3 -5 1 -10 -4 -10 -6 0 -11
5 -11 10 0 6 2 10 4 10 3 0 8 -4 11 -10z m82 -33 c4 -21 3 -21 -11 -2 -8 11
-12 24 -9 28 7 12 16 0 20 -26z m-3791 -4 c17 -17 15 -18 -42 -24 -32 -3 -53
-6 -46 -7 6 -1 12 -6 12 -12 0 -5 -7 -7 -15 -4 -9 4 -15 19 -15 35 0 28 2 29
44 29 29 0 51 -6 62 -17z m1221 5 c6 -7 15 -64 21 -125 8 -75 18 -126 32 -152
25 -49 25 -51 0 -51 -11 0 -20 2 -20 4 0 2 -3 12 -7 22 -5 13 -3 15 7 9 15 -9
7 9 -17 36 -12 14 -42 189 -43 247 0 24 12 29 27 10z m2367 -45 c-3 -32 -7
-67 -9 -78 -2 -11 3 -29 11 -39 19 -26 18 -76 -2 -126 -17 -42 -39 -60 -73
-60 -27 0 -26 7 0 29 27 21 38 82 38 212 1 89 9 119 33 119 5 0 6 -26 2 -57z
m1262 38 c-4 -6 -24 -16 -45 -22 -40 -12 -81 0 -81 23 0 9 3 9 12 0 16 -16 57
-15 88 3 27 14 36 13 26 -4z m-4876 -41 c0 -5 -4 -10 -10 -10 -5 0 -10 5 -10
10 0 6 5 10 10 10 6 0 10 -4 10 -10z m3970 -51 l0 -60 -55 -24 c-60 -27 -57
-23 -75 -143 -12 -83 -71 -274 -106 -343 -25 -50 -61 -85 -124 -120 l-39 -22
6 -98 6 -98 -31 -30 c-28 -29 -35 -31 -102 -31 l-72 0 3 33 c4 64 -2 87 -31
120 -16 19 -30 39 -30 45 0 25 36 37 109 37 68 0 82 4 136 35 123 70 159 119
213 290 36 114 48 173 62 305 6 55 14 101 18 103 4 1 30 16 57 32 28 16 51 30
53 30 1 0 2 -27 2 -61z m-226 20 c-3 -5 -10 -7 -15 -3 -5 3 -7 10 -3 15 3 5
10 7 15 3 5 -3 7 -10 3 -15z m-2426 -66 c7 -43 15 -96 19 -117 10 -60 -14 -36
-26 27 -15 81 -22 167 -13 167 4 0 13 -35 20 -77z m-1287 51 c10 -12 12 -84
10 -344 l-3 -328 24 -4 c12 -2 23 -10 23 -18 1 -8 6 -25 13 -37 7 -12 12 -40
12 -62 0 -22 4 -42 9 -45 19 -12 19 -90 -1 -123 -11 -18 -24 -33 -29 -33 -38
0 33 -152 98 -210 44 -38 45 -42 33 -65 -7 -14 -17 -25 -21 -25 -5 0 -30 22
-56 48 -52 52 -104 142 -122 208 -9 34 -17 43 -43 50 -37 11 -59 47 -58 91 1
15 2 56 3 90 1 33 5 65 10 69 4 4 7 17 7 29 0 31 23 47 57 40 24 -5 25 -5 10
5 -11 7 -30 10 -43 7 -52 -10 -54 3 -54 283 0 171 -4 267 -11 284 -13 28 -6
68 17 90 21 21 97 21 115 0z m144 -6 c14 -6 25 -14 25 -17 0 -4 14 -8 32 -9
18 -2 36 -8 40 -15 12 -19 9 -72 -5 -92 -13 -17 -15 -17 -30 6 -10 13 -17 39
-17 59 -1 34 -1 34 -14 12 l-12 -23 -32 29 c-31 29 -43 62 -22 62 5 0 21 -5
35 -12z m885 -28 c0 -5 -4 -10 -10 -10 -5 0 -10 5 -10 10 0 6 5 10 10 10 6 0
10 -4 10 -10z m2455 -130 c-19 -36 -30 -35 -17 1 5 13 13 47 18 74 l9 50 3
-47 c2 -30 -3 -59 -13 -78z m1229 105 c39 -30 -2 -43 -162 -53 -101 -7 -104
-8 -133 -40 -22 -24 -29 -42 -29 -73 0 -38 2 -40 28 -37 23 3 27 8 30 38 5 53
16 60 93 60 65 0 70 -2 79 -26 13 -33 13 -124 0 -124 -5 0 -7 7 -3 16 8 22
-33 53 -69 54 -16 0 -41 -12 -60 -29 -26 -22 -40 -27 -65 -24 l-33 5 0 -66 c0
-62 2 -68 33 -97 28 -26 37 -29 81 -26 42 4 55 10 85 43 21 23 43 37 53 36 10
-2 18 3 18 10 0 10 2 10 9 0 5 -8 17 -12 27 -10 16 3 19 14 22 83 l2 80 -31
15 c-34 16 -76 75 -60 84 5 3 18 -10 30 -29 11 -20 28 -35 39 -35 33 0 42 -21
42 -105 0 -102 -10 -118 -70 -113 -40 3 -47 0 -65 -27 -11 -16 -32 -35 -45
-42 -32 -16 -38 -35 -39 -111 -1 -73 -21 -119 -55 -128 -31 -7 -73 13 -57 29
7 7 15 6 26 -3 12 -10 19 -10 38 3 19 13 25 27 30 78 12 108 10 119 -17 119
-32 0 -57 10 -51 20 3 5 -14 13 -37 17 l-43 9 4 87 c3 72 1 87 -12 87 -11 0
-16 -17 -22 -65 -10 -101 -25 -76 -25 44 0 126 7 140 90 185 43 24 67 29 151
33 77 5 106 10 122 24 26 22 27 22 51 4z m-3547 -121 c-19 -19 -38 -34 -41
-34 -14 0 -3 37 27 92 l32 59 9 -41 c9 -40 8 -44 -27 -76z m3723 86 c0 -24
-22 -36 -82 -45 -47 -7 -48 -7 -48 18 0 22 6 27 38 32 20 4 42 8 47 10 28 9
45 4 45 -15z m-3983 -56 c3 -8 1 -20 -6 -27 -14 -14 -47 15 -37 32 10 16 36
13 43 -5z m3993 -19 c0 -21 -6 -24 -55 -30 -67 -9 -90 -2 -76 22 9 16 106 44
124 35 4 -2 7 -14 7 -27z m-1230 -51 c0 -8 -5 -12 -10 -9 -6 4 -8 11 -5 16 9
14 15 11 15 -7z m-2452 -17 l30 -12 -48 -52 c-46 -50 -50 -52 -79 -42 -40 14
-39 30 5 79 40 44 47 46 92 27z m3731 -128 c1 -56 -19 -104 -33 -81 -4 7 -20
12 -36 12 l-29 0 6 83 c5 74 14 96 36 97 14 0 7 -83 -10 -102 -21 -23 -14 -31
12 -12 16 12 20 26 20 67 0 29 4 55 10 59 12 9 24 -47 24 -123z m-3989 100 c0
-5 -7 -9 -15 -9 -15 0 -20 12 -9 23 8 8 24 -1 24 -14z m392 -41 c44 -86 135
-174 233 -226 92 -49 65 -47 -42 4 -90 43 -158 108 -206 199 -39 73 -43 85
-28 85 6 0 25 -28 43 -62z m3215 46 c15 -4 27 -21 37 -51 13 -39 14 -49 2 -78
-14 -34 -49 -61 -65 -50 -5 3 -11 1 -13 -5 -1 -5 -18 2 -35 16 -26 20 -33 33
-33 61 0 87 95 101 119 18 l9 -30 1 28 c1 34 -31 67 -66 67 -27 1 -27 1 -9 15
22 17 23 17 53 9z m-4437 -14 c0 -5 -4 -10 -10 -10 -5 0 -10 5 -10 10 0 6 5
10 10 10 6 0 10 -4 10 -10z m3420 -83 c0 -111 -27 -231 -68 -297 -24 -38 -33
-45 -64 -48 l-37 -3 34 69 c39 78 65 175 65 242 0 25 3 62 6 82 6 36 9 38 57
47 4 0 7 -41 7 -92z m1290 8 l0 -85 -31 0 c-24 0 -30 3 -25 16 3 9 6 47 6 85
0 67 1 69 25 69 25 0 25 -1 25 -85z m-3550 66 c0 -6 -4 -13 -10 -16 -32 -20
32 -149 111 -225 l57 -56 -39 -33 c-38 -32 -41 -32 -65 -17 -66 44 -134 187
-134 282 0 37 4 46 28 58 31 18 52 20 52 7z m-1030 -113 c6 -29 15 -89 20
-133 5 -44 12 -90 16 -102 9 -33 -4 -28 -47 15 -34 35 -38 44 -44 113 -4 41
-5 86 -2 99 2 14 5 -1 6 -33 0 -32 8 -72 17 -88 8 -17 17 -40 20 -52 2 -11 11
-28 19 -36 15 -15 15 -13 5 12 -5 16 -13 65 -15 110 -4 60 -12 95 -30 129 -31
60 -32 81 -1 46 13 -15 29 -51 36 -80z m3400 72 c0 -5 -4 -10 -10 -10 -5 0
-10 5 -10 10 0 6 5 10 10 10 6 0 10 -4 10 -10z m977 -37 c-3 -10 -5 -4 -5 12
0 17 2 24 5 18 2 -7 2 -21 0 -30z m-4487 14 c0 -8 -3 -17 -7 -20 -9 -9 -34 13
-27 24 8 14 34 11 34 -4z m969 -8 c22 -8 31 -17 31 -32 1 -32 41 -126 78 -179
18 -26 52 -61 76 -78 39 -28 43 -35 36 -58 -9 -32 -20 -31 -66 6 -83 66 -238
352 -191 352 2 0 18 -5 36 -11z m1161 -21 c0 -5 17 -16 37 -25 47 -19 117 -11
157 18 l28 21 -7 -23 c-14 -46 -34 -67 -80 -82 -35 -12 -52 -14 -70 -5 -48 21
-35 33 36 33 52 0 72 4 86 18 17 17 17 17 -19 2 -72 -29 -153 -15 -181 33 -16
27 -16 31 -3 26 9 -3 16 -10 16 -16z m185 2 c-12 -19 -82 -31 -125 -21 -62 14
-62 25 0 18 44 -5 91 0 128 12 2 1 0 -3 -3 -9z m965 -16 c0 -8 -4 -14 -10 -14
-5 0 -10 9 -10 21 0 11 5 17 10 14 6 -3 10 -13 10 -21z m210 -28 c0 -3 -4 -8
-10 -11 -5 -3 -10 -1 -10 4 0 6 5 11 10 11 6 0 10 -2 10 -4z m861 -34 c-7 -2
-18 1 -23 6 -8 8 -4 9 13 5 13 -4 18 -8 10 -11z m417 -15 c25 -20 10 -27 -62
-27 -79 0 -103 -13 -93 -50 7 -26 -9 -26 -23 0 -14 25 11 77 43 90 26 10 116
2 135 -13z m-3938 -3 c0 -8 -5 -12 -10 -9 -6 4 -8 11 -5 16 9 14 15 11 15 -7z
m3336 -45 c-9 -73 -23 -116 -36 -103 -5 5 -4 32 1 64 15 88 19 100 30 100 8 0
9 -19 5 -61z m82 35 c21 -6 22 -11 22 -98 0 -107 -11 -131 -53 -121 -26 7 -27
10 -27 70 0 86 11 155 24 155 6 0 21 -3 34 -6z m-1008 -34 c0 -5 -4 -10 -10
-10 -5 0 -10 5 -10 10 0 6 5 10 10 10 6 0 10 -4 10 -10z m1538 -15 c-3 -18
-12 -20 -74 -23 -58 -2 -73 0 -78 13 -8 22 27 33 97 32 51 -2 57 -4 55 -22z
m-4758 -11 c0 -8 -4 -12 -10 -9 -5 3 -10 10 -10 16 0 5 5 9 10 9 6 0 10 -7 10
-16z m3440 6 c0 -5 -4 -10 -10 -10 -5 0 -10 5 -10 10 0 6 5 10 10 10 6 0 10
-4 10 -10z m249 -56 c9 -7 -23 -112 -44 -144 -12 -20 -63 -62 -116 -98 -67
-45 -108 -81 -141 -125 -44 -58 -47 -67 -50 -130 -4 -93 -22 -90 -23 3 0 75 0
75 44 124 l44 48 -6 94 -5 93 56 39 c33 22 71 59 91 89 l34 51 56 -21 c31 -11
58 -22 60 -23z m611 36 c0 -5 -2 -10 -4 -10 -3 0 -8 5 -11 10 -3 6 -1 10 4 10
6 0 11 -4 11 -10z m468 -22 c-3 -9 -27 -13 -73 -13 -46 0 -70 4 -72 13 -4 9
15 12 72 12 57 0 76 -3 73 -12z m-118 -114 c35 -105 26 -297 -21 -451 -20 -63
-60 -123 -84 -123 -24 0 -28 94 -5 167 33 114 50 239 50 382 1 135 1 136 20
113 10 -12 28 -52 40 -88z m-3720 86 c0 -5 -2 -10 -4 -10 -3 0 -8 5 -11 10 -3
6 -1 10 4 10 6 0 11 -4 11 -10z m452 -19 c55 -35 83 -73 108 -147 25 -72 25
-130 0 -196 -28 -74 -16 -73 17 2 15 35 29 58 31 52 6 -19 -45 -122 -61 -122
-18 0 -63 -49 -76 -83 -6 -16 -11 -54 -11 -85 0 -105 -56 -168 -96 -107 -15
24 -17 50 -15 215 3 213 -4 251 -56 327 -33 49 -35 55 -23 83 17 40 78 90 110
90 14 0 47 -13 72 -29z m2918 15 c0 -3 -4 -8 -10 -11 -5 -3 -10 -1 -10 4 0 6
5 11 10 11 6 0 10 -2 10 -4z m-3520 -26 c0 -5 -4 -10 -10 -10 -5 0 -10 5 -10
10 0 6 5 10 10 10 6 0 10 -4 10 -10z m788 -2 c5 -7 22 -53 37 -103 28 -94 46
-118 150 -204 l40 -33 -60 33 c-128 69 -155 106 -178 242 -13 75 -10 90 11 65z
m1337 -19 c28 -53 -12 -179 -56 -179 -7 0 -8 7 -4 18 12 27 35 134 35 165 0
35 6 34 25 -4z m-2051 0 c-3 -5 -10 -7 -15 -3 -5 3 -7 10 -3 15 3 5 10 7 15 3
5 -3 7 -10 3 -15z m2216 0 c0 -5 -7 -9 -15 -9 -15 0 -20 12 -9 23 8 8 24 -1
24 -14z m995 -23 c-4 -20 -12 -36 -17 -36 -5 0 -6 10 -3 23 4 12 9 30 12 40 9
32 15 11 8 -27z m44 -3 c-11 -56 -15 -70 -41 -140 -11 -29 -24 -53 -29 -53 -5
0 3 26 16 57 14 31 31 85 38 120 6 35 14 63 18 63 4 0 2 -21 -2 -47z m-4011
-4 c9 -116 70 -296 148 -434 38 -69 40 -70 79 -69 l40 2 -40 -18 -41 -17 8
-107 c7 -105 8 -109 43 -147 19 -21 35 -47 35 -57 0 -10 -13 -39 -30 -65 -22
-36 -34 -45 -47 -40 -35 13 -66 37 -83 66 l-18 28 47 48 47 48 -4 74 c-2 41
-10 90 -17 110 -7 23 -9 43 -3 53 6 11 1 28 -20 58 -40 59 -84 149 -115 235
-25 68 -57 213 -57 255 0 34 25 14 28 -23z m4209 16 c0 -10 -10 -15 -26 -15
-25 1 -25 1 -7 15 25 19 33 19 33 0z m-1267 -75 c0 -5 -4 -10 -10 -10 -5 0
-10 5 -10 10 0 6 5 10 10 10 6 0 10 -4 10 -10z m1166 -4 c7 -18 -21 -117 -47
-168 -19 -38 -52 -63 -69 -53 -5 3 4 33 19 68 16 34 36 86 45 115 17 51 40 68
52 38z m-3266 -11 c0 -8 -4 -15 -9 -15 -13 0 -22 16 -14 24 11 11 23 6 23 -9z
m301 -60 c22 -50 34 -198 24 -299 -12 -129 -25 -85 -25 87 -1 165 -10 218 -44
256 -24 26 -19 37 5 15 12 -10 30 -37 40 -59z m1519 63 c0 -17 -40 -82 -46
-75 -6 5 33 87 41 87 3 0 5 -6 5 -12z m-1733 -74 c-9 -9 -28 6 -21 18 4 6 10
6 17 -1 6 -6 8 -13 4 -17z m2028 16 c3 -5 1 -10 -4 -10 -6 0 -11 5 -11 10 0 6
2 10 4 10 3 0 8 -4 11 -10z m-1891 -160 c8 -135 1 -170 -32 -170 -16 1 -16 1
1 11 15 9 17 27 17 140 0 80 -5 139 -12 152 -10 19 -9 20 4 9 11 -9 17 -44 22
-142z m3244 123 c4 -30 -31 -49 -52 -27 -19 19 -20 26 -4 42 19 19 53 10 56
-15z m-103 -13 c-5 -8 -11 -8 -17 -2 -6 6 -7 16 -3 22 5 8 11 8 17 2 6 -6 7
-16 3 -22z m-4285 10 c0 -5 -4 -10 -10 -10 -5 0 -10 5 -10 10 0 6 5 10 10 10
6 0 10 -4 10 -10z m2968 -130 c14 -19 58 -69 98 -110 66 -68 72 -77 59 -93
-10 -15 -18 -16 -33 -8 -32 17 -108 108 -158 187 -40 64 -49 73 -69 68 -15 -4
-24 0 -29 12 -4 9 -5 17 -4 18 2 1 19 9 38 18 l35 16 19 -37 c10 -20 30 -52
44 -71z m-2038 90 c0 -5 -4 -10 -10 -10 -5 0 -10 5 -10 10 0 6 5 10 10 10 6 0
10 -4 10 -10z m3011 -17 c-8 -15 -10 -15 -11 -2 0 17 10 32 18 25 2 -3 -1 -13
-7 -23z m-405 -10 c-10 -10 -19 5 -10 18 6 11 8 11 12 0 2 -7 1 -15 -2 -18z
m494 12 c0 -26 -28 -72 -56 -94 -49 -39 -53 -22 -11 43 41 63 67 82 67 51z
m-980 -19 c0 -3 -4 -8 -10 -11 -5 -3 -10 -1 -10 4 0 6 5 11 10 11 6 0 10 -2
10 -4z m-300 -191 c0 -110 -4 -175 -10 -175 -6 0 -10 60 -10 159 0 143 4 191
16 191 2 0 4 -79 4 -175z m1578 126 c67 -34 107 -76 138 -143 24 -53 28 -76
29 -148 0 -76 -3 -91 -30 -139 -35 -63 -89 -110 -171 -148 -49 -22 -72 -27
-139 -26 -150 1 -233 65 -255 197 -14 89 2 168 49 239 23 33 41 67 40 76 0 13
-2 13 -12 -3 -7 -10 -23 -32 -36 -48 -22 -27 -26 -29 -37 -13 -8 10 -9 26 -5
43 6 20 3 32 -10 46 -10 10 -15 25 -12 33 4 11 10 10 30 -9 l24 -22 62 31 c34
17 82 37 107 43 25 7 50 14 55 16 27 10 135 -5 173 -25z m-3323 -31 c-5 -8
-11 -8 -17 -2 -6 6 -7 16 -3 22 5 8 11 8 17 2 6 -6 7 -16 3 -22z m22 -2 c-3
-7 -5 -2 -5 12 0 14 2 19 5 13 2 -7 2 -19 0 -25z m1634 -416 c-19 -37 -52
-155 -65 -234 -4 -22 -26 -60 -55 -97 -48 -60 -64 -90 -76 -145 -11 -49 -23
-10 -14 42 6 30 27 72 58 118 40 58 53 89 76 180 15 60 35 125 45 144 14 28
18 73 23 223 3 103 10 193 14 200 4 7 9 -79 11 -190 2 -185 1 -206 -17 -241z
m603 422 c3 -9 6 -40 6 -70 l0 -53 -29 5 c-16 3 -38 1 -49 -5 -19 -10 -21 -8
-27 33 -4 24 -4 58 0 75 6 29 10 31 50 31 30 0 45 -5 49 -16z m256 6 c0 -5 -4
-10 -10 -10 -5 0 -10 5 -10 10 0 6 5 10 10 10 6 0 10 -4 10 -10z m-1840 -226
l0 -215 56 -126 c65 -147 67 -175 15 -210 -33 -23 -91 -31 -91 -14 0 5 12 11
28 14 37 8 72 42 72 72 0 13 -23 70 -52 127 l-51 103 -3 215 c-3 215 0 265 17
254 5 -3 9 -102 9 -220z m-82 40 c-4 -200 -23 -191 -23 10 0 124 3 152 13 144
9 -8 12 -47 10 -154z m-1564 135 c-3 -5 -10 -7 -15 -3 -5 3 -7 10 -3 15 3 5
10 7 15 3 5 -3 7 -10 3 -15z m3376 -5 c0 -16 -16 -19 -25 -4 -8 13 4 32 16 25
5 -4 9 -13 9 -21z m163 4 c-59 -79 -167 -208 -188 -228 -16 -14 21 35 81 108
60 72 110 132 112 132 3 0 0 -6 -5 -12z m306 -21 c6 -8 8 -17 4 -20 -7 -8 -33
11 -33 24 0 13 16 11 29 -4z m-2386 -4 c-7 -2 -21 -2 -30 0 -10 3 -4 5 12 5
17 0 24 -2 18 -5z m1320 -60 c-2 -38 -4 -113 -6 -168 -4 -114 -19 -156 -109
-302 -44 -72 -50 -88 -42 -110 9 -27 20 -36 69 -55 42 -16 6 -23 -40 -8 -83
27 -85 99 -5 220 79 120 92 162 99 325 4 77 10 146 14 153 17 26 23 10 20 -55z
m-1273 10 c0 -8 -7 -29 -14 -48 -16 -38 -39 -44 -79 -24 -29 16 -37 29 -36 59
1 21 2 21 6 5 8 -33 24 -45 59 -45 44 0 64 34 45 78 -10 25 -10 26 4 8 8 -11
15 -26 15 -33z m1920 27 c0 -5 -4 -10 -10 -10 -5 0 -10 5 -10 10 0 6 5 10 10
10 6 0 10 -4 10 -10z m-570 -44 c-14 -18 -40 -21 -40 -5 0 6 5 20 11 31 10 18
12 19 27 5 13 -13 13 -19 2 -31z m993 10 c14 -11 17 -22 12 -45 -9 -44 -28
-56 -65 -41 -50 21 -54 34 -24 79 28 42 32 43 77 7z m-3458 -48 c48 -86 133
-215 188 -283 l39 -50 -49 51 c-70 73 -232 311 -233 342 0 27 17 8 55 -60z
m1059 51 c-3 -5 -10 -7 -15 -3 -5 3 -7 10 -3 15 3 5 10 7 15 3 5 -3 7 -10 3
-15z m320 -204 c17 -138 32 -185 111 -350 42 -90 58 -135 62 -180 7 -70 2 -69
-26 3 -11 29 -46 91 -76 140 -63 98 -115 244 -115 321 0 26 3 97 7 157 8 124
11 116 37 -91z m1194 120 c28 -30 63 -81 79 -112 25 -53 28 -69 31 -193 4
-149 -9 -248 -35 -268 -15 -10 -21 -8 -42 12 -23 24 -25 32 -33 213 -10 205
-18 236 -88 340 -29 43 -30 46 -14 64 21 24 37 15 102 -56z m267 65 c3 -5 8
-53 12 -107 4 -81 1 -123 -22 -243 -31 -169 -52 -250 -64 -250 -5 0 -4 21 1
47 11 49 11 49 -38 79 -20 12 -19 18 21 204 12 56 15 98 10 167 -4 50 -4 96
-1 102 9 14 73 15 81 1z m-2097 -16 c12 -8 32 -34 43 -57 12 -23 32 -57 46
-75 14 -18 22 -36 18 -40 -4 -4 -42 -7 -85 -7 -73 0 -81 2 -109 29 -39 37 -46
68 -25 112 25 52 71 67 112 38z m-1078 -4 c0 -5 -4 -10 -9 -10 -6 0 -13 5 -16
10 -3 6 1 10 9 10 9 0 16 -4 16 -10z m2460 -312 c-12 -35 -45 -106 -74 -158
-30 -52 -58 -111 -64 -130 -17 -53 -33 -163 -42 -290 -5 -63 -15 -171 -22
-240 l-13 -125 -7 260 c-11 346 -5 377 97 580 63 124 79 167 96 250 11 55 25
115 32 134 11 30 12 20 15 -92 2 -106 -1 -136 -18 -189z m590 282 c0 -5 -5
-10 -11 -10 -5 0 -7 5 -4 10 3 6 8 10 11 10 2 0 4 -4 4 -10z m-2770 -68 c0 -3
-7 3 -15 14 -8 10 -14 28 -14 39 0 14 4 10 14 -14 8 -18 15 -36 15 -39z m1085
36 c29 -13 37 -55 8 -43 -10 4 -28 10 -40 12 -26 6 -28 14 -11 31 15 15 12 15
43 0z m2360 -14 c14 -15 25 -22 25 -15 0 14 27 15 35 1 8 -13 -14 -42 -25 -35
-9 6 -83 -74 -111 -120 -12 -19 -19 -49 -19 -81 0 -43 -6 -60 -40 -110 -22
-32 -68 -90 -104 -129 l-63 -70 -52 24 c-28 14 -51 27 -51 30 0 3 19 20 41 36
23 17 73 63 111 104 l70 74 -6 61 c-5 52 -3 66 17 97 25 42 128 157 140 158 4
1 19 -11 32 -25z m-695 -16 c0 -17 -45 -3 -48 15 -3 15 0 16 22 6 14 -7 26
-16 26 -21z m-3030 -4 c19 -7 50 -13 68 -14 31 0 32 -1 32 -44 l0 -44 -57 15
c-62 16 -133 51 -133 65 0 25 22 49 38 42 9 -3 33 -13 52 -20z m-320 -14 c0
-5 -4 -10 -10 -10 -5 0 -10 5 -10 10 0 6 5 10 10 10 6 0 10 -4 10 -10z m472
-32 c3 -24 1 -48 -3 -54 -5 -6 -6 -14 -2 -17 3 -4 4 -7 0 -7 -3 0 -13 7 -21
16 -16 15 -22 84 -9 97 17 18 31 4 35 -35z m1224 11 c12 -19 -7 -27 -34 -13
-15 7 -33 14 -41 14 -10 0 -11 3 -2 14 10 11 19 12 42 4 16 -5 32 -14 35 -19z
m-1576 11 c0 -5 -7 -10 -15 -10 -8 0 -15 5 -15 10 0 6 7 10 15 10 8 0 15 -4
15 -10z m2990 -5 c0 -8 -4 -15 -10 -15 -5 0 -10 7 -10 15 0 8 5 15 10 15 6 0
10 -7 10 -15z m-2543 -27 c-3 -7 -5 -2 -5 12 0 14 2 19 5 13 2 -7 2 -19 0 -25z
m1093 -6 c21 -17 22 -22 11 -68 -6 -27 -20 -113 -31 -191 -21 -152 -42 -211
-65 -179 -16 21 -37 151 -38 235 -1 72 22 154 54 195 24 31 39 32 69 8z m1738
-10 c2 -14 -2 -22 -12 -22 -19 0 -29 17 -22 36 8 22 30 12 34 -14z m361 -1
c25 -23 31 -37 31 -70 0 -36 -4 -44 -32 -61 -56 -34 -117 -20 -139 31 -14 36
1 80 39 109 34 28 65 25 101 -9z m348 -23 c-3 -8 -6 -5 -6 6 -1 11 2 17 5 13
3 -3 4 -12 1 -19z m-3557 2 c0 -5 -2 -10 -4 -10 -3 0 -8 5 -11 10 -3 6 -1 10
4 10 6 0 11 -4 11 -10z m2020 -5 c0 -3 -15 -14 -32 -25 -56 -34 -248 -26 -248
11 0 6 9 5 23 -3 35 -19 186 -17 222 4 34 20 35 20 35 13z m-1229 -219 c-10
-26 -71 -35 -89 -13 -10 11 -7 20 13 41 l25 27 -65 62 c-36 34 -65 69 -65 77
0 8 42 -28 94 -79 79 -79 93 -97 87 -115z m-1251 173 c0 -5 -7 -9 -15 -9 -15
0 -20 12 -9 23 8 8 24 -1 24 -14z m3058 -26 c6 -3 12 -11 12 -19 0 -12 -6 -12
-37 2 -21 9 -44 18 -50 21 -7 3 -13 11 -13 19 0 12 6 12 38 -2 20 -9 43 -18
50 -21z m-1300 6 c-5 -15 -128 -71 -128 -58 0 13 91 69 113 69 10 0 17 -5 15
-11z m1996 -73 c-22 -75 -196 -236 -254 -236 -26 0 -100 58 -100 78 0 38 15
45 92 43 65 -1 79 2 125 29 38 22 59 42 74 73 33 65 41 72 56 51 7 -10 10 -27
7 -38z m231 44 c3 -5 1 -10 -4 -10 -6 0 -11 5 -11 10 0 6 2 10 4 10 3 0 8 -4
11 -10z m41 -26 c-11 -7 -22 -12 -25 -9 -2 3 4 12 15 19 10 8 21 12 24 9 3 -2
-4 -11 -14 -19z m-3766 6 c0 -5 -4 -10 -10 -10 -5 0 -10 5 -10 10 0 6 5 10 10
10 6 0 10 -4 10 -10z m4355 0 c3 -5 -1 -10 -10 -10 -9 0 -13 5 -10 10 3 6 8
10 10 10 2 0 7 -4 10 -10z m-3202 -67 c4 -27 9 -64 13 -84 5 -29 3 -37 -12
-43 -21 -8 -114 78 -114 107 0 28 45 67 78 67 27 0 30 -3 35 -47z m2681 -12
c-4 -5 -43 41 -44 52 0 4 11 -5 24 -20 13 -15 23 -30 20 -32z m-4014 39 c0 -5
-4 -10 -10 -10 -5 0 -10 5 -10 10 0 6 5 10 10 10 6 0 10 -4 10 -10z m3986 -62
c17 -33 5 -38 -15 -5 -8 12 -21 33 -30 47 l-15 25 23 -20 c13 -11 29 -32 37
-47z m-2976 -61 c0 -6 -22 11 -50 38 -27 27 -50 56 -50 65 1 17 100 -85 100
-103z m2918 64 c23 -28 38 -52 33 -55 -9 -6 -20 5 -65 67 -39 54 -18 46 32
-12z m-1774 14 c23 -23 33 -25 108 -25 65 0 91 4 118 20 l35 21 -29 -25 c-33
-28 -66 -36 -145 -36 -59 0 -92 15 -111 51 -14 26 -6 24 24 -6z m1740 -31 c38
-56 45 -89 8 -37 -22 32 -54 93 -49 93 2 0 21 -25 41 -56z m-3200 24 c14 -22
16 -22 29 -6 13 16 16 15 41 -11 l28 -29 -23 -15 c-13 -9 -41 -23 -62 -33 -36
-17 -38 -17 -65 3 -33 25 -34 36 -2 79 30 40 33 41 54 12z m-554 -8 c0 -5 -4
-10 -10 -10 -5 0 -10 5 -10 10 0 6 5 10 10 10 6 0 10 -4 10 -10z m668 -19 c3
-8 -1 -12 -9 -9 -7 2 -15 10 -17 17 -3 8 1 12 9 9 7 -2 15 -10 17 -17z m932
-1 c0 -12 -121 -71 -132 -64 -14 9 7 27 66 57 47 25 66 27 66 7z m1115 -5 c49
-29 70 -51 57 -59 -13 -8 -112 53 -112 69 0 20 4 19 55 -10z m-2427 -83 c-29
-43 -54 -75 -56 -70 -7 16 81 148 99 148 5 0 -14 -35 -43 -78z m1650 54 c6
-14 23 -69 38 -123 24 -88 27 -114 26 -255 0 -90 -5 -164 -11 -175 -6 -10 -11
-13 -11 -7 -1 61 -56 368 -75 424 -27 80 -32 129 -13 148 18 18 34 14 46 -12z
m-1499 -24 l43 -37 -53 -69 c-70 -90 -81 -96 -116 -70 -15 12 -34 32 -42 46
-14 24 -12 28 34 89 72 95 72 95 134 41z m3653 -122 l108 -159 -77 -55 c-43
-31 -82 -56 -88 -56 -5 0 -31 35 -56 77 l-47 77 42 30 c72 52 80 74 43 117
-12 15 -42 50 -65 78 l-44 51 39 0 38 0 107 -160z m-143 84 c53 -63 53 -64 37
-90 -18 -26 -72 -64 -93 -64 -12 0 -103 136 -103 154 1 14 71 64 90 65 8 0 39
-29 69 -65z m127 56 c13 0 35 -21 65 -62 62 -87 61 -85 49 -108 -8 -16 -5 -28
15 -61 33 -52 43 -45 15 11 -34 68 -17 68 19 1 18 -35 35 -60 38 -58 2 3 -23
59 -57 124 -73 138 -43 111 51 -47 34 -58 74 -124 89 -148 26 -42 26 -43 11
-92 -8 -28 -18 -50 -22 -50 -4 0 -27 32 -51 71 -24 38 -93 141 -154 227 -61
86 -116 168 -123 181 -13 23 -12 24 10 18 13 -4 33 -7 45 -7z m179 0 c-3 -5
-10 -10 -16 -10 -5 0 -9 5 -9 10 0 6 7 10 16 10 8 0 12 -4 9 -10z m-1161 -22
c13 -22 3 -32 -23 -23 -25 8 -29 48 -5 43 9 -2 22 -11 28 -20z m621 -8 c0 -22
-29 -18 -33 3 -3 14 1 18 15 15 10 -2 18 -10 18 -18z m-3735 -5 c0 -8 -7 -15
-15 -15 -8 0 -15 7 -15 15 0 8 7 15 15 15 8 0 15 -7 15 -15z m745 -25 c3 -5 1
-10 -4 -10 -6 0 -11 5 -11 10 0 6 2 10 4 10 3 0 8 -4 11 -10z m501 -25 c8 -31
8 -31 -33 -40 -31 -6 -33 -5 -33 20 0 17 7 29 23 35 33 13 36 12 43 -15z
m1649 -61 c-14 -29 -15 -43 -5 -87 11 -46 9 -58 -9 -108 -12 -31 -29 -63 -39
-71 -9 -9 -75 -28 -147 -43 -154 -33 -201 -48 -234 -78 -14 -12 -20 -15 -15
-7 6 8 17 32 23 52 24 73 62 111 170 168 81 42 115 67 163 119 33 36 70 83 82
103 20 37 21 37 24 12 2 -14 -4 -41 -13 -60z m212 71 c7 -21 2 -25 -25 -18
-12 3 -22 12 -22 19 0 19 39 18 47 -1z m-1642 -127 c62 -75 100 -96 235 -128
52 -12 105 -29 117 -36 24 -15 66 -133 78 -219 l7 -50 -26 41 c-35 57 -100 88
-266 128 -79 19 -154 43 -169 54 -17 12 -36 46 -54 98 -40 111 -41 115 -22
180 l17 58 15 -31 c8 -17 38 -60 68 -95z m748 81 c-13 -13 -155 -7 -160 6 -2
6 29 9 83 7 56 -2 83 -7 77 -13z m-1677 -15 c19 -15 34 -30 34 -35 0 -12 -62
-111 -66 -106 -3 2 7 24 20 48 l25 45 -35 27 c-19 16 -32 32 -29 38 9 13 13
12 51 -17z m2569 15 c4 -6 5 -13 2 -16 -8 -7 -47 7 -47 18 0 13 37 11 45 -2z
m705 -6 c0 -5 -16 -18 -35 -31 -44 -28 -44 -45 -1 -88 19 -19 28 -34 22 -34
-14 0 -48 35 -65 67 -18 35 -13 57 17 75 29 17 62 23 62 11z m-2552 -21 c2 -7
-5 -12 -16 -12 -11 0 -27 -3 -36 -6 -10 -4 -16 -1 -16 9 0 24 60 32 68 9z
m-748 -54 c0 -5 -14 0 -30 12 -17 12 -27 26 -24 32 6 10 54 -29 54 -44z m2590
42 c8 -5 11 -12 8 -15 -10 -10 -69 5 -62 16 7 12 35 11 54 -1z m710 -29 c-19
-16 -37 -27 -39 -25 -8 7 42 54 58 54 9 0 2 -11 -19 -29z m-2540 -1 c0 -9 -35
-20 -63 -20 -26 0 -15 23 14 31 26 6 49 1 49 -11z m938 -2 c-3 -8 -28 -14 -66
-16 -51 -2 -62 0 -62 13 0 12 13 15 66 15 48 0 65 -3 62 -12z m-1740 -17 c33
-29 27 -46 -7 -19 -29 22 -39 38 -23 38 4 -1 17 -9 30 -19z m2631 10 c7 -5 9
-11 5 -13 -14 -8 -84 3 -84 13 0 11 61 11 79 0z m736 -11 c-16 -10 -32 -17
-35 -14 -7 8 31 34 49 34 10 0 4 -8 -14 -20z m-3378 -40 c18 -16 30 -30 25
-30 -11 0 -79 59 -68 60 4 0 24 -13 43 -30z m823 21 c0 -5 -9 -12 -20 -15 -11
-3 -29 -9 -40 -12 -22 -6 -29 21 -7 29 21 9 67 7 67 -2z m1810 -16 c-1 -10
-70 -9 -80 1 -2 3 1 9 9 13 16 10 72 -1 71 -14z m420 -17 c0 -34 -50 -221 -57
-214 -4 3 10 134 23 214 7 43 34 44 34 0z m1155 22 c7 -12 -12 -40 -27 -40
-16 0 -21 32 -7 41 18 12 26 11 34 -1z m-3970 -9 c11 -19 -82 -84 -175 -122
-52 -22 -104 -49 -116 -60 -33 -31 -82 -128 -100 -200 -19 -74 -15 -130 17
-212 46 -121 133 -182 281 -197 86 -8 108 -21 138 -80 44 -86 44 -152 0 -105
-13 14 -27 25 -32 25 -13 0 -9 -34 8 -75 8 -20 13 -39 11 -42 -8 -7 -140 19
-193 39 -29 10 -71 32 -93 49 -51 37 -112 128 -134 200 -80 271 -80 269 -75
343 l5 72 -49 -96 c-36 -71 -50 -111 -54 -157 -4 -35 -11 -63 -15 -63 -14 0
-29 37 -29 74 0 48 16 85 54 126 18 19 59 83 91 141 61 115 109 180 128 176 7
-1 11 3 10 10 -4 18 22 34 156 100 127 62 155 71 166 54z m109 -8 c2 -10 7
-43 10 -73 l6 -55 -21 45 c-30 65 -35 100 -16 100 9 0 18 -8 21 -17z m1404
-10 c-6 -32 -138 -30 -138 2 0 12 15 15 71 15 62 0 70 -2 67 -17z m-924 -2 c3
-5 -6 -12 -22 -15 -15 -4 -35 -9 -44 -12 -26 -8 -22 15 5 26 29 12 54 12 61 1z
m1795 -10 c7 -5 9 -11 4 -14 -14 -9 -83 4 -83 14 0 12 61 11 79 0z m-2840
-133 c5 -15 -13 -3 -86 55 -35 27 -63 53 -63 58 0 12 143 -98 149 -113z m1051
103 c0 -13 -8 -17 -47 -26 -38 -8 -46 10 -10 25 30 12 57 12 57 1z m1780 -16
c-1 -5 -15 -9 -33 -7 -35 3 -41 7 -33 20 7 12 67 0 66 -13z m1173 -45 c-10 -9
-48 -38 -84 -63 -67 -46 -80 -48 -91 -10 -2 6 33 39 77 72 l80 61 18 -22 c17
-21 17 -22 0 -38z m-4086 -9 c62 -47 70 -57 62 -74 -13 -23 -23 -19 -105 39
-65 46 -74 60 -52 82 15 15 8 18 95 -47z m2047 43 c4 -9 4 -19 1 -23 -11 -11
-115 -5 -127 7 -19 19 7 32 68 32 39 0 53 -4 58 -16z m1745 -71 c74 -83 62
-86 -19 -3 -38 38 -74 70 -80 70 -5 0 -10 5 -10 10 0 21 59 -21 109 -77z
m-2659 58 c0 -5 -10 -11 -22 -14 -13 -2 -32 -8 -42 -12 -14 -6 -17 -5 -12 4
14 22 76 40 76 22z m-1368 -49 c-4 -11 -53 -42 -67 -42 -3 0 -5 9 -5 20 0 13
12 28 30 38 16 9 30 22 31 27 0 6 4 1 8 -10 5 -11 6 -26 3 -33z m699 29 c-12
-22 -68 -71 -82 -71 -4 0 -15 -11 -24 -23 -14 -22 -13 -32 25 -142 23 -65 64
-168 92 -229 28 -61 53 -130 56 -153 l5 -43 -56 0 c-73 0 -173 32 -219 70 -20
17 -49 55 -64 86 -23 47 -26 63 -21 117 8 88 23 130 61 176 19 23 42 63 51 90
19 58 42 81 115 115 66 31 74 32 61 7z m2444 9 c3 -6 -1 -7 -9 -4 -18 7 -21
14 -7 14 6 0 13 -4 16 -10z m1205 -44 c-26 -32 -150 -117 -160 -111 -6 4 -10
11 -8 15 6 19 163 127 172 119 5 -5 4 -14 -4 -23z m-4154 -31 c40 -30 74 -59
74 -63 0 -19 -15 -21 -39 -5 -83 54 -130 94 -125 108 4 8 8 15 11 15 2 0 38
-25 79 -55z m4334 39 c0 -8 -5 -12 -10 -9 -6 4 -8 11 -5 16 9 14 15 11 15 -7z
m70 -4 c0 -5 -4 -10 -10 -10 -5 0 -10 5 -10 10 0 6 5 10 10 10 6 0 10 -4 10
-10z m-2312 -22 c3 -16 -5 -18 -67 -18 -53 0 -71 3 -71 13 0 24 13 28 74 25
49 -2 61 -7 64 -20z m2262 -52 c0 -15 -50 -56 -69 -56 -14 0 -14 16 0 82 l12
52 28 -32 c16 -18 29 -39 29 -46z m-3840 -32 c5 -49 23 -134 39 -189 16 -55
31 -131 35 -170 l7 -70 -36 65 c-68 124 -155 338 -155 381 0 14 89 83 97 75 1
-1 7 -42 13 -92z m3098 74 l34 -23 -6 -76 c-7 -92 -25 -155 -73 -257 -20 -43
-46 -102 -59 -132 -13 -30 -24 -46 -24 -35 0 32 27 182 54 300 14 61 26 140
26 178 0 37 3 67 7 67 4 0 22 -10 41 -22z m613 -51 l46 -72 -76 -55 c-42 -31
-82 -59 -88 -63 -14 -9 -96 108 -91 130 3 12 145 130 158 132 3 0 26 -32 51
-72z m-481 -44 c97 -110 126 -203 96 -307 -32 -109 -141 -188 -261 -190 l-60
-1 1 45 c1 28 17 80 44 140 58 133 77 188 84 251 16 128 16 130 36 119 10 -5
37 -31 60 -57z m-1650 32 c0 -24 -2 -25 -75 -25 -73 0 -75 1 -75 25 0 24 2 25
75 25 73 0 75 -1 75 -25z m1237 -17 c-3 -8 -6 -5 -6 6 -1 11 2 17 5 13 3 -3 4
-12 1 -19z m-2570 -20 c-3 -8 -6 -5 -6 6 -1 11 2 17 5 13 3 -3 4 -12 1 -19z
m1343 -42 c0 -20 -6 -24 -46 -30 -26 -3 -64 -6 -85 -6 -37 0 -39 2 -39 30 l0
30 85 0 c83 0 85 -1 85 -24z m-2 -83 l3 -33 -85 0 -86 0 0 35 0 36 83 -3 82
-3 3 -32z m1939 -115 c-3 -8 -6 -5 -6 6 -1 11 2 17 5 13 3 -3 4 -12 1 -19z
m85 -91 c-9 -19 -11 -17 -11 18 -1 22 -4 51 -6 65 -3 14 2 5 11 -18 12 -33 14
-49 6 -65z m-4162 59 c-5 -15 -10 -41 -10 -59 0 -29 -1 -30 -17 -14 -16 16
-16 19 5 63 24 49 40 56 22 10z m4118 -54 c3 -44 0 -61 -11 -71 -14 -11 -17
-8 -23 23 -3 20 -3 57 1 82 9 62 27 44 33 -34z m-2161 -254 c-1 -62 -3 -14 -3
107 0 121 2 172 3 113 2 -59 2 -158 0 -220z m1961 177 c-10 -192 -131 -329
-326 -371 -98 -20 -93 -23 -87 54 5 64 4 66 -9 37 -24 -48 -18 -4 9 70 33 91
44 102 108 103 64 0 150 32 199 72 39 33 87 119 89 159 1 22 2 21 11 -9 6 -19
8 -71 6 -115z m-3884 -36 c-3 -5 -10 -7 -15 -3 -5 3 -7 10 -3 15 3 5 10 7 15
3 5 -3 7 -10 3 -15z m4086 -9 c0 -5 -4 -10 -10 -10 -5 0 -10 5 -10 10 0 6 5
10 10 10 6 0 10 -4 10 -10z m140 -125 c0 -8 -4 -15 -9 -15 -13 0 -22 16 -14
24 11 11 23 6 23 -9z m-273 -57 c-3 -8 -6 -5 -6 6 -1 11 2 17 5 13 3 -3 4 -12
1 -19z m393 -68 c0 -5 -4 -10 -10 -10 -5 0 -10 5 -10 10 0 6 5 10 10 10 6 0
10 -4 10 -10z"/>
<path d="M1979 4587 c-121 -111 -184 -226 -243 -448 -30 -112 -32 -163 -10
-296 10 -65 14 -145 12 -242 -4 -214 3 -224 214 -307 139 -54 187 -86 315
-211 113 -110 117 -89 6 32 -36 39 -80 100 -99 137 -37 73 -36 73 -135 82 -78
8 -189 43 -217 69 -48 44 -55 73 -69 282 -7 110 -16 238 -19 285 -12 180 79
411 234 588 34 39 61 72 60 72 -2 -1 -24 -20 -49 -43z"/>
<path d="M3084 4561 c188 -202 236 -352 216 -676 -5 -88 -9 -214 -8 -280 1
-69 -3 -131 -10 -147 -27 -65 -109 -104 -323 -152 -18 -4 -44 -32 -88 -95 -88
-125 -113 -144 -60 -46 89 167 127 206 270 274 154 74 163 95 128 297 -25 147
-29 288 -9 387 15 79 9 166 -13 217 -15 32 -16 33 -9 5 8 -35 7 -158 -3 -345
-6 -115 -4 -155 14 -268 23 -142 19 -193 -16 -224 -10 -9 -61 -37 -114 -62
-117 -55 -165 -104 -256 -258 -68 -115 -112 -161 -170 -177 -54 -15 -168 -13
-207 3 -41 17 -101 95 -187 240 -77 131 -114 163 -236 201 -119 38 -142 51
-159 90 -21 52 -20 593 2 677 20 81 12 85 -11 6 -14 -48 -19 -116 -23 -293 -9
-333 -8 -365 12 -402 19 -38 42 -51 156 -88 149 -47 179 -73 253 -220 47 -93
124 -194 167 -220 30 -17 52 -20 145 -20 150 0 170 9 285 120 104 100 144 126
300 197 113 52 154 84 169 132 6 17 11 191 13 386 3 320 1 361 -15 420 -37
129 -131 272 -233 355 -46 37 -44 34 20 -34z"/>
<path d="M1916 4139 c-5 -40 -3 -102 3 -160 21 -171 39 -209 125 -264 73 -47
122 -105 167 -199 21 -44 36 -70 33 -56 -3 14 -20 57 -38 95 -25 53 -47 83
-90 120 -145 126 -145 126 -162 195 -9 35 -19 125 -23 200 -7 130 -7 133 -15
69z"/>
<path d="M3097 4003 c-21 -171 -39 -211 -122 -273 -134 -102 -169 -161 -239
-403 -47 -163 -35 -148 27 33 34 102 74 204 87 228 16 29 53 64 107 104 97 71
119 102 138 194 14 68 31 254 24 254 -3 0 -12 -62 -22 -137z"/>
<path d="M2295 3560 c29 -58 73 -202 98 -320 3 -14 3 1 1 33 -8 84 -50 222
-91 295 -19 34 -37 62 -39 62 -2 0 12 -32 31 -70z"/>
<path d="M4735 4449 c-5 -13 -2 -27 8 -36 24 -24 59 -8 55 25 -4 36 -53 45
-63 11z"/>
<path d="M4306 4061 c-26 -28 -17 -65 15 -69 28 -3 59 20 59 43 0 17 -27 45
-44 45 -7 0 -21 -9 -30 -19z m34 -21 c13 -8 13 -10 -2 -10 -9 0 -18 -6 -21
-12 -2 -7 -8 -10 -12 -6 -9 8 1 38 12 38 4 0 15 -5 23 -10z"/>
<path d="M807 3947 c-9 -13 -22 -39 -30 -58 -8 -19 -31 -71 -51 -117 l-36 -83
53 -23 c71 -32 97 -39 97 -28 0 5 -28 20 -62 32 -35 13 -58 25 -52 27 6 2 35
-6 64 -17 29 -11 54 -19 56 -17 3 3 109 216 116 234 4 9 -103 72 -123 73 -9 0
-24 -11 -32 -23z m119 -44 c-6 -7 -86 29 -86 38 0 5 20 -1 45 -13 24 -12 43
-23 41 -25z m-59 -13 c23 -11 45 -25 48 -31 6 -8 -90 35 -104 47 -12 11 20 2
56 -16z m29 -77 c-7 -7 -115 40 -110 48 2 5 29 -4 59 -18 30 -15 53 -28 51
-30z m-46 -35 c23 -12 27 -16 11 -12 -37 10 -91 34 -91 40 0 8 40 -6 80 -28z
m5 -59 c5 -5 -12 -2 -37 7 -26 8 -52 22 -59 30 -12 15 77 -20 96 -37z"/>
<path d="M627 3797 c-42 -75 -90 -192 -111 -273 -18 -68 -12 -78 52 -90 30 -6
33 -10 29 -33 -55 -298 -60 -335 -64 -502 -3 -105 -1 -218 6 -280 14 -119 49
-330 56 -337 14 -14 14 11 1 69 -26 114 -46 287 -46 404 l0 114 63 4 62 3 -62
2 -63 2 0 49 c0 27 3 62 6 78 6 30 7 30 47 21 60 -13 93 -5 40 10 -23 7 -45
18 -49 24 -5 8 -1 9 12 4 10 -4 33 -10 51 -13 l31 -5 6 68 c6 69 31 220 42
248 6 15 -33 43 -44 31 -13 -13 -39 -200 -30 -212 10 -13 0 -100 -12 -108 -19
-11 -40 8 -40 37 0 56 33 253 60 363 25 100 26 112 12 128 -21 24 -26 15 -52
-78 -12 -44 -23 -81 -25 -83 -2 -2 -21 2 -44 9 -30 9 -41 18 -41 32 0 34 58
194 105 286 25 50 43 91 41 91 -2 0 -20 -28 -39 -63z m82 -454 c-5 -16 -14
-48 -20 -72 -15 -63 -23 -42 -9 26 13 64 17 73 30 73 4 0 4 -12 -1 -27z"/>
<path d="M564 2713 c3 -21 6 -51 6 -66 0 -24 4 -28 23 -25 18 2 23 11 28 48
l6 45 3 -45 3 -45 7 50 c7 48 7 47 9 -25 2 -115 10 -150 33 -150 18 0 19 5 14
48 -3 26 -8 82 -12 125 l-6 77 -60 0 -61 0 7 -37z"/>
<path d="M465 2596 c58 -205 74 -251 75 -220 0 17 -46 166 -64 204 -9 19 -14
26 -11 16z"/>
<path d="M585 2563 c30 -180 47 -268 50 -271 5 -5 74 18 79 26 6 10 -15 125
-24 135 -4 4 -19 5 -35 1 -20 -5 -23 -9 -13 -15 9 -6 9 -9 1 -9 -19 0 -30 29
-38 98 -4 34 -11 62 -16 62 -5 0 -6 -12 -4 -27z m72 -179 c-3 -3 -12 -4 -19
-1 -8 3 -5 6 6 6 11 1 17 -2 13 -5z m33 -19 c0 -9 -44 -23 -54 -18 -4 3 -2 9
5 14 15 10 49 12 49 4z m10 -25 c0 -10 -32 -30 -49 -30 -20 0 -11 20 12 30 29
12 37 12 37 0z"/>
<path d="M625 2539 c16 -59 31 -81 21 -30 -3 18 -6 44 -6 57 0 14 -6 24 -14
24 -12 0 -12 -7 -1 -51z"/>
<path d="M640 2234 c0 -11 14 -54 39 -118 6 -16 14 -27 16 -24 2 2 -9 38 -25
79 -16 40 -29 69 -30 63z"/>
<path d="M4027 2743 c-4 -3 -7 -16 -6 -27 0 -19 1 -19 10 3 10 24 8 36 -4 24z"/>
<path d="M3992 2598 c-12 -50 -21 -93 -18 -95 2 -2 14 37 26 87 12 50 21 93
18 95 -2 2 -14 -37 -26 -87z"/>
<path d="M3577 3174 c-14 -14 -7 -35 11 -32 9 2 17 10 17 17 0 16 -18 25 -28
15z"/>
<path d="M3554 3079 c-3 -6 -2 -15 4 -21 13 -13 32 -2 32 18 0 16 -26 19 -36
3z"/>
<path d="M3532 2993 c5 -25 28 -28 28 -4 0 12 -6 21 -16 21 -9 0 -14 -7 -12
-17z"/>
<path d="M3522 2913 c4 -22 38 -30 38 -10 0 8 -7 18 -16 21 -23 9 -26 8 -22
-11z"/>
<path d="M3445 2739 c-5 -15 0 -28 17 -46 l25 -24 18 27 c21 33 11 57 -28 62
-19 2 -27 -2 -32 -19z m51 -3 c3 -8 2 -22 -3 -30 -8 -14 -12 -14 -28 -3 -11 9
-16 20 -12 31 8 20 36 21 43 2z"/>
<path d="M1486 3165 c-3 -9 1 -18 10 -22 19 -7 28 2 21 22 -8 19 -23 19 -31 0z"/>
<path d="M1522 3074 c4 -21 22 -23 26 -1 2 10 -3 17 -13 17 -10 0 -15 -6 -13
-16z"/>
<path d="M1536 3001 c-7 -11 18 -33 27 -24 4 3 7 12 7 20 0 15 -26 18 -34 4z"/>
<path d="M1566 2933 c-12 -12 -6 -33 9 -33 8 0 15 6 15 14 0 17 -14 28 -24 19z"/>
<path d="M4673 3353 c-35 -7 -79 -57 -91 -103 -21 -85 47 -190 124 -190 80 0
134 59 134 145 0 99 -77 167 -167 148z m95 -39 c75 -53 67 -186 -15 -220 -47
-20 -86 -10 -123 32 -67 77 -17 204 80 204 20 0 46 -7 58 -16z"/>
<path d="M4658 3215 c-17 -38 3 -75 41 -75 50 0 74 38 51 81 -17 30 -77 26
-92 -6z m80 -2 c6 -10 6 -28 1 -40 -14 -39 -79 -25 -79 17 0 38 61 56 78 23z"/>
<path d="M1740 3155 c-13 -34 29 -244 63 -319 35 -75 87 -138 150 -179 71 -47
110 -58 241 -67 146 -10 182 -28 248 -125 37 -53 48 -78 48 -108 0 -46 15 -77
38 -77 14 0 13 3 -5 15 -15 10 -22 28 -25 67 -3 38 -17 75 -49 133 -25 44 -64
125 -87 180 -76 176 -148 277 -260 367 -88 70 -146 101 -229 122 -90 24 -121
21 -133 -9z m52 -67 c-5 -89 -9 -97 -11 -20 0 39 2 72 7 72 4 0 6 -24 4 -52z
m158 -39 c9 -16 8 -26 -5 -45 -9 -14 -23 -28 -31 -31 -8 -3 -14 -11 -14 -19 0
-21 -28 -17 -40 5 -5 11 -10 31 -10 45 0 55 77 89 100 45z m-153 -91 c-3 -7
-5 -2 -5 12 0 14 2 19 5 13 2 -7 2 -19 0 -25z m78 -88 c24 -47 102 -128 154
-162 25 -15 40 -28 34 -28 -20 0 -133 82 -157 113 -34 45 -63 106 -70 147 l-6
35 14 -36 c8 -20 22 -51 31 -69z m75 -172 c0 -6 -7 -5 -15 2 -8 7 -15 17 -15
22 0 6 7 5 15 -2 8 -7 15 -17 15 -22z"/>
<path d="M3190 3161 c-178 -57 -343 -199 -430 -371 -15 -30 -45 -100 -65 -155
-20 -55 -50 -124 -66 -153 -25 -45 -31 -67 -33 -135 -2 -45 -6 -91 -10 -102
-3 -11 0 -6 8 10 9 17 15 59 16 98 0 81 12 108 78 169 56 53 99 68 193 68 89
0 156 22 226 73 65 49 122 124 158 213 29 69 34 57 7 -14 -35 -91 -114 -187
-194 -238 -55 -35 -101 -50 -210 -69 -106 -18 -152 -43 -198 -107 -23 -31 -30
-52 -30 -87 0 -25 -7 -71 -15 -101 -8 -30 -15 -62 -14 -70 1 -30 20 35 34 118
24 134 79 202 182 222 173 33 204 43 260 79 89 57 167 153 210 256 12 28 29
98 39 157 22 137 15 158 -48 157 -24 0 -68 -8 -98 -18z m65 -139 c0 -77 -4
-95 -31 -152 -33 -71 -78 -127 -128 -163 -17 -12 -7 3 25 35 31 31 69 82 85
114 26 54 29 68 29 166 0 71 3 104 10 97 6 -6 10 -49 10 -97z m52 -4 c-2 -13
-4 -5 -4 17 -1 22 1 32 4 23 2 -10 2 -28 0 -40z m-10 -70 c-3 -7 -5 -2 -5 12
0 14 2 19 5 13 2 -7 2 -19 0 -25z m-146 6 c17 -21 0 -49 -31 -49 -31 0 -48 28
-31 49 8 9 21 16 31 16 10 0 23 -7 31 -16z m-91 -269 c0 -7 -57 -35 -72 -35
-7 0 5 9 27 19 48 23 45 22 45 16z"/>
<path d="M2590 2480 c-28 -55 -20 -62 9 -9 13 22 21 43 18 46 -3 3 -15 -14
-27 -37z"/>
<path d="M2067 2387 c16 -18 52 -87 80 -153 29 -65 61 -139 73 -164 l21 -45
-4 45 c-2 25 -16 74 -31 110 -40 95 -41 99 -12 55 14 -22 40 -80 58 -129 17
-49 34 -84 36 -77 9 28 -85 233 -115 250 -10 6 -15 11 -11 11 11 0 -59 91 -85
112 -36 29 -41 20 -10 -15z"/>
<path d="M2873 2353 c-75 -80 -147 -214 -159 -294 -6 -46 -8 -50 -15 -29 -7
24 -8 23 -6 -5 1 -16 7 -29 13 -28 15 3 -1 -96 -18 -113 -10 -10 -26 -9 -75 4
-62 16 -95 14 -215 -14 -23 -5 -30 -1 -47 27 -13 21 -21 28 -21 17 0 -9 11
-29 23 -44 23 -26 26 -27 70 -16 57 15 176 16 213 2 44 -17 62 -3 104 83 22
45 40 75 41 67 0 -8 7 12 14 45 24 107 101 295 137 332 19 20 26 33 18 33 -8
0 -43 -30 -77 -67z m-68 -151 c-25 -48 -51 -108 -59 -133 -14 -43 -14 -43 -15
-11 -1 37 47 149 85 199 14 18 27 33 30 33 2 0 -16 -40 -41 -88z m-38 -144
c-3 -7 -5 -2 -5 12 0 14 2 19 5 13 2 -7 2 -19 0 -25z m-40 -110 c-3 -8 -6 -5
-6 6 -1 11 2 17 5 13 3 -3 4 -12 1 -19z"/>
<path d="M2416 2320 c3 -25 9 -61 14 -80 8 -34 8 -34 8 -5 0 17 -6 53 -13 80
l-14 50 5 -45z"/>
<path d="M2441 2184 c0 -11 3 -14 6 -6 3 7 2 16 -1 19 -3 4 -6 -2 -5 -13z"/>
<path d="M100 3011 c26 -4 36 -12 38 -28 4 -28 22 -30 22 -3 0 24 -29 40 -67
39 -25 -1 -24 -2 7 -8z"/>
<path d="M37 2991 c-2 -10 -1 -24 3 -31 5 -7 9 0 12 19 5 34 -7 43 -15 12z"/>
<path d="M70 2664 c0 -174 3 -263 10 -259 14 8 14 525 0 525 -6 0 -10 -95 -10
-266z"/>
<path d="M126 2908 c-10 -38 -6 -472 4 -488 6 -10 10 74 10 248 0 144 -2 262
-4 262 -2 0 -6 -10 -10 -22z"/>
<path d="M91 2291 c-10 -7 -12 -21 -7 -55 l7 -47 62 3 c60 3 62 4 65 32 2 15
1 39 -2 52 -6 21 -12 24 -59 24 -28 0 -58 -4 -66 -9z m109 -27 c17 -45 13 -51
-42 -57 -28 -4 -53 -5 -55 -3 -2 2 -6 19 -10 39 -6 39 1 44 65 46 26 1 34 -4
42 -25z"/>
<path d="M82 2096 l3 -31 75 3 c74 4 93 13 87 42 -2 12 -20 15 -85 16 l-83 1
3 -31z m148 4 c0 -16 -7 -20 -34 -20 -18 0 -48 -3 -65 -6 -27 -6 -31 -4 -31
14 0 22 17 28 88 31 36 1 42 -2 42 -19z"/>
<path d="M4500 2811 c0 -22 5 -43 10 -46 6 -4 10 12 10 39 0 25 -4 46 -10 46
-5 0 -10 -18 -10 -39z"/>
<path d="M3892 2353 c2 -10 10 -18 18 -18 22 0 18 29 -3 33 -14 3 -18 -1 -15
-15z"/>
<path d="M1668 2239 c-22 -13 -24 -62 -2 -79 11 -10 23 -11 42 -4 36 13 42 56
10 78 -26 19 -27 19 -50 5z m49 -51 c-3 -7 -5 -2 -5 12 0 14 2 19 5 13 2 -7 2
-19 0 -25z"/>
<path d="M4500 1979 c-79 -16 -131 -56 -170 -133 -52 -102 -49 -177 14 -306
18 -38 61 -54 147 -54 63 0 86 6 140 31 154 72 212 184 160 307 -22 51 -85
116 -134 139 -44 21 -104 27 -157 16z m22 -39 c-27 -26 -28 -40 -2 -40 22 0
45 34 34 52 -11 17 53 2 93 -23 25 -15 31 -25 24 -32 -8 -8 1 -16 30 -27 48
-17 74 -49 83 -100 6 -30 5 -32 -7 -17 -7 10 -23 19 -36 20 -21 1 -51 34 -65
72 -2 6 -11 5 -25 -2 -28 -17 -30 -17 -23 10 5 21 5 21 -11 5 -9 -9 -17 -22
-17 -28 0 -6 -4 -9 -9 -5 -5 3 -19 -7 -30 -21 -12 -15 -21 -22 -21 -15 0 18
-50 13 -57 -6 -9 -23 32 -53 73 -53 19 0 34 -4 34 -10 0 -5 12 -10 26 -10 16
0 42 -14 65 -35 22 -19 43 -35 49 -35 5 0 16 12 24 28 8 15 15 21 16 14 1 -40
-59 -107 -127 -141 -47 -23 -66 -27 -43 -8 26 21 24 69 -4 102 -14 16 -26 40
-28 54 -2 20 -10 27 -36 32 -45 9 -111 57 -118 86 -8 31 4 109 19 121 13 11
72 30 96 31 10 1 8 -6 -7 -19z m-118 -130 c4 -25 3 -31 -4 -20 -5 8 -10 26
-10 39 0 32 6 24 14 -19z m-64 -50 c0 -5 -5 -10 -11 -10 -5 0 -7 5 -4 10 3 6
8 10 11 10 2 0 4 -4 4 -10z m300 -20 c14 -5 18 -9 9 -9 -20 -1 -81 19 -93 30
-9 8 18 1 84 -21z m-44 -182 c-9 -34 -26 -56 -33 -40 -2 6 -17 12 -33 12 -29
0 -44 19 -34 45 4 8 7 15 8 15 0 0 19 7 41 14 37 13 41 13 49 -4 5 -10 6 -29
2 -42z m-199 -30 c15 -6 48 -14 73 -18 l45 -7 -43 -2 c-39 -1 -112 21 -112 33
0 8 5 7 37 -6z"/>
<path d="M4584 1915 c11 -8 17 -18 13 -21 -4 -4 -13 -1 -21 5 -17 15 -36 7
-36 -15 0 -8 -4 -13 -9 -9 -5 3 -13 0 -17 -6 -6 -10 11 -28 28 -29 4 0 15 9
25 19 10 11 30 22 46 26 33 9 46 25 18 25 -11 0 -23 5 -26 10 -3 6 -14 10 -23
10 -15 -1 -15 -2 2 -15z"/>
<path d="M4675 1639 c-4 -6 -5 -12 -2 -15 2 -3 7 2 10 11 7 17 1 20 -8 4z"/>
<path d="M4650 1569 c-22 -18 -22 -19 -3 -10 12 6 25 16 28 21 9 15 3 12 -25
-11z"/>
<path d="M4702 1979 c2 -6 8 -10 13 -10 5 0 11 4 13 10 2 6 -4 11 -13 11 -9 0
-15 -5 -13 -11z"/>
<path d="M1457 1813 c-4 -3 -7 -17 -7 -30 0 -18 6 -23 24 -23 28 0 37 17 24
43 -9 17 -29 23 -41 10z"/>
<path d="M3775 1665 c-61 -60 9 -146 86 -105 26 15 24 29 -3 23 l-23 -6 23 26
c29 31 22 64 -15 78 -35 13 -41 12 -68 -16z m45 -39 c0 -3 -4 -8 -10 -11 -5
-3 -10 -1 -10 4 0 6 5 11 10 11 6 0 10 -2 10 -4z"/>
<path d="M4430 1326 c0 -2 8 -10 18 -17 15 -13 16 -12 3 4 -13 16 -21 21 -21
13z"/>
<path d="M3014 995 c-7 -18 3 -35 21 -35 18 0 26 15 19 34 -8 20 -33 21 -40 1z"/>
<path d="M212 5103 c8 -10 36 -45 64 -78 27 -33 80 -94 117 -135 95 -104 148
-175 150 -199 1 -11 7 -23 14 -25 10 -4 9 3 -2 31 -19 44 -47 82 -140 188 -39
44 -99 115 -134 158 -34 42 -67 77 -73 77 -7 0 -5 -7 4 -17z"/>
<path d="M390 5115 c0 -20 128 -217 194 -298 33 -40 40 -56 33 -68 -24 -37 16
-89 56 -74 33 13 27 72 -9 81 -30 8 -167 187 -219 286 -32 60 -55 91 -55 73z
m280 -380 c17 -20 5 -45 -20 -45 -23 0 -35 22 -26 45 7 19 30 19 46 0z"/>
<path d="M2145 5100 c-44 -10 -130 -34 -191 -54 -305 -99 -672 -352 -878 -606
-66 -81 -83 -112 -24 -45 141 162 236 252 381 359 68 50 235 154 304 190 108
55 311 123 472 156 51 11 72 19 51 18 -19 0 -71 -8 -115 -18z"/>
<path d="M2325 5105 c-323 -53 -625 -180 -870 -365 -162 -123 -163 -125 -75
-213 l59 -60 34 29 c18 16 72 58 120 93 48 36 87 68 87 71 0 4 -18 41 -40 83
-43 81 -45 87 -31 87 5 0 26 -34 48 -75 21 -41 44 -75 51 -75 7 0 61 24 120
54 118 59 301 124 432 152 120 27 410 27 530 0 197 -43 371 -115 505 -210 164
-115 154 -110 170 -96 12 10 24 5 66 -29 29 -23 56 -40 60 -39 11 4 119 130
119 139 0 12 -89 82 -193 153 -204 138 -468 242 -744 291 -129 23 -339 28
-448 10z m225 -130 c0 -8 -4 -15 -9 -15 -13 0 -22 16 -14 24 11 11 23 6 23 -9z
m-180 -5 c0 -5 -4 -10 -10 -10 -5 0 -10 5 -10 10 0 6 5 10 10 10 6 0 10 -4 10
-10z m710 -34 c0 -3 -4 -8 -10 -11 -5 -3 -10 -1 -10 4 0 6 5 11 10 11 6 0 10
-2 10 -4z m-1042 -34 c3 -16 -2 -22 -16 -22 -24 0 -35 23 -19 39 16 16 31 8
35 -17z m1132 7 c0 -5 -7 -9 -15 -9 -15 0 -20 12 -9 23 8 8 24 -1 24 -14z
m-1350 -75 c0 -9 -5 -14 -12 -12 -18 6 -21 28 -4 28 9 0 16 -7 16 -16z m1485
-85 c42 -27 82 -52 89 -55 8 -3 19 12 30 41 10 25 20 45 24 45 12 0 162 -103
162 -111 0 -15 -8 -11 -78 36 l-67 45 -23 -45 c-12 -25 -26 -45 -31 -45 -18 0
-200 123 -195 131 7 13 5 14 89 -42z m-1777 -11 c-2 -12 -9 -23 -15 -26 -19
-6 -29 28 -12 39 23 14 31 10 27 -13z m-98 -102 c0 -2 -7 -9 -15 -16 -12 -10
-15 -10 -15 4 0 9 7 16 15 16 8 0 15 -2 15 -4z"/>
<path d="M2872 5094 c162 -33 309 -84 463 -159 122 -59 313 -177 361 -223 12
-12 24 -19 27 -16 8 8 245 -225 292 -288 25 -33 45 -55 45 -50 0 19 -71 106
-164 200 -199 203 -489 384 -772 482 -119 41 -289 81 -341 79 -15 0 25 -11 89
-25z"/>
<path d="M4641 5109 c-1 -9 -13 -34 -27 -55 -15 -21 -19 -32 -10 -24 23 18 48
69 42 83 -2 7 -5 5 -5 -4z"/>
<path d="M4670 5085 c-6 -20 -24 -50 -38 -67 -15 -17 -20 -29 -12 -26 27 9 94
128 71 128 -5 0 -15 -16 -21 -35z"/>
<path d="M4740 5106 c0 -27 12 -46 30 -46 19 0 65 49 55 59 -3 3 -16 -7 -28
-23 -20 -25 -24 -26 -36 -12 -7 8 -10 20 -6 26 3 5 1 10 -4 10 -6 0 -11 -6
-11 -14z"/>
<path d="M4840 5063 c-67 -85 -77 -104 -25 -48 56 61 89 105 78 105 -5 0 -28
-26 -53 -57z"/>
<path d="M115 5063 c19 -27 74 -97 122 -158 78 -97 93 -111 133 -122 25 -7 54
-18 65 -24 18 -11 19 -10 7 4 -7 9 -28 19 -45 23 -55 11 -82 31 -127 91 -64
86 -182 233 -186 233 -2 0 12 -21 31 -47z"/>
<path d="M4457 4982 c-21 -23 -21 -36 -2 -52 13 -10 19 -9 36 6 23 20 22 57
-2 62 -8 1 -23 -6 -32 -16z m33 -11 c0 -6 -4 -13 -10 -16 -5 -3 -10 1 -10 9 0
9 5 16 10 16 6 0 10 -4 10 -9z"/>
<path d="M4528 4918 c-15 -16 -21 -28 -14 -28 16 0 49 36 45 47 -2 4 -16 -4
-31 -19z"/>
<path d="M4420 4875 c0 -5 12 -21 26 -37 26 -26 26 -28 10 -55 l-17 -28 23 28
c13 15 33 27 44 27 11 0 29 7 40 15 22 17 12 20 -18 4 -25 -13 -72 4 -93 35
-8 11 -15 16 -15 11z"/>
<path d="M607 4854 c-10 -10 12 -44 29 -44 10 0 14 8 12 22 -3 22 -27 35 -41
22z"/>
<path d="M2870 4815 c47 -13 136 -42 198 -64 117 -42 138 -48 112 -31 -26 17
-347 120 -372 119 -12 0 15 -11 62 -24z"/>
<path d="M2075 4796 c-116 -34 -249 -87 -281 -111 -10 -8 15 0 56 19 77 35
105 45 275 95 55 17 91 30 80 30 -11 0 -69 -15 -130 -33z"/>
<path d="M490 4715 c19 -19 36 -35 39 -35 3 0 -10 16 -29 35 -19 19 -36 35
-39 35 -3 0 10 -16 29 -35z"/>
<path d="M1935 4714 c-27 -13 -39 -21 -25 -18 38 10 107 43 90 42 -8 0 -37
-11 -65 -24z"/>
<path d="M4280 4675 c-18 -22 -8 -50 19 -50 28 0 47 25 38 49 -8 20 -40 21
-57 1z m20 -10 c-7 -9 -15 -13 -17 -11 -7 7 7 26 19 26 6 0 6 -6 -2 -15z"/>
<path d="M3145 4670 c-4 -6 0 -10 7 -10 26 0 142 -61 209 -110 38 -28 69 -47
69 -43 -1 11 -135 105 -188 132 -66 34 -91 41 -97 31z"/>
<path d="M3729 4623 c-13 -16 -33 -39 -44 -53 l-20 -25 29 25 c27 24 72 80 64
80 -3 0 -15 -12 -29 -27z"/>
<path d="M685 4511 c34 -36 71 -79 83 -96 17 -22 20 -24 12 -6 -7 13 -44 56
-84 96 l-71 72 60 -66z"/>
<path d="M1261 4561 c-12 -8 -10 -16 13 -49 43 -63 63 -77 112 -78 24 -1 44 3
44 9 0 15 -123 126 -140 126 -8 1 -21 -3 -29 -8z"/>
<path d="M4226 4532 l-29 -37 36 34 c39 36 42 41 30 41 -5 0 -21 -17 -37 -38z"/>
<path d="M3510 4535 c13 -14 26 -25 28 -25 3 0 -5 11 -18 25 -13 14 -26 25
-28 25 -3 0 5 -11 18 -25z"/>
<path d="M90 4548 c0 -4 41 -55 90 -113 l90 -106 1 -72 c1 -40 4 -83 9 -97 4
-14 5 18 2 70 -2 52 -9 103 -13 112 -16 29 -179 218 -179 206z"/>
<path d="M1123 4391 c-50 -55 -60 -71 -49 -80 10 -9 24 2 62 48 27 33 53 60
57 60 5 1 -17 -29 -47 -66 -51 -61 -55 -69 -40 -83 14 -14 21 -9 75 50 32 35
59 68 59 72 0 4 -12 20 -28 37 l-27 30 -62 -68z"/>
<path d="M1250 4415 c19 -22 39 -44 44 -50 5 -5 4 -1 -2 10 -6 11 -25 33 -44
50 l-33 30 35 -40z"/>
<path d="M3577 4435 c11 -8 76 -72 143 -142 68 -71 118 -119 112 -107 -17 32
-248 264 -263 264 -8 0 -5 -6 8 -15z"/>
<path d="M3846 4405 c-21 -19 -36 -39 -34 -44 5 -16 99 -111 109 -111 10 0 89
69 89 79 0 12 -101 111 -113 111 -7 0 -30 -16 -51 -35z m65 -36 c25 -25 21
-53 -9 -57 -25 -4 -49 35 -39 62 9 22 23 20 48 -5z"/>
<path d="M3876 4372 c-8 -14 2 -39 19 -46 24 -9 29 15 7 36 -12 12 -22 16 -26
10z"/>
<path d="M0 4409 c0 -8 27 -41 60 -72 33 -32 60 -62 60 -67 0 -6 -16 -32 -36
-60 -48 -67 -35 -64 16 4 33 44 39 58 31 73 -18 32 -131 138 -131 122z"/>
<path d="M1259 4323 c-13 -16 -12 -17 4 -4 9 7 17 15 17 17 0 8 -8 3 -21 -13z"/>
<path d="M1195 4248 l-50 -53 53 50 c48 46 57 55 49 55 -1 0 -25 -24 -52 -52z"/>
<path d="M5033 4203 c-73 -71 -55 -61 34 20 29 26 48 47 44 47 -5 0 -40 -30
-78 -67z"/>
<path d="M991 4154 c-29 -49 -27 -57 20 -88 l41 -28 26 24 26 23 -23 -33 c-13
-18 -21 -35 -18 -38 3 -3 20 16 38 42 l32 48 -34 28 c-19 16 -46 36 -61 44
-25 13 -27 12 -47 -22z m61 -31 c19 -17 24 -48 9 -58 -5 -3 -25 4 -45 16 -31
18 -34 23 -23 40 15 23 35 24 59 2z"/>
<path d="M5082 4126 c-35 -41 -34 -52 12 -95 l26 -24 0 39 c0 22 -5 45 -12 52
-8 8 -8 15 1 26 7 9 11 21 9 27 -2 6 -18 -5 -36 -25z"/>
<path d="M938 4047 c14 -16 82 -60 82 -52 0 2 -21 19 -47 36 -27 18 -42 26
-35 16z"/>
<path d="M4968 3995 c16 -31 141 -150 148 -142 4 4 5 8 3 10 -3 1 -40 36 -83
77 -43 41 -74 66 -68 55z"/>
<path d="M4162 3943 c-35 -21 -42 -29 -36 -46 11 -38 21 -40 73 -11 54 31 57
35 41 65 -13 24 -25 23 -78 -8z m48 2 c0 -7 -63 -45 -75 -45 -5 0 8 11 30 25
44 27 45 27 45 20z"/>
<path d="M931 3549 c-12 -35 -21 -68 -20 -73 0 -6 11 20 25 58 13 38 22 71 20
73 -2 2 -13 -24 -25 -58z"/>
<path d="M4511 3584 c-1 -7 -21 -15 -45 -18 l-44 -7 18 -61 c11 -33 21 -62 23
-65 3 -2 24 1 47 7 l42 11 -6 40 c-7 42 -34 113 -35 93z m-12 -61 c0 -25 -1
-26 -9 -8 -12 27 -12 35 0 35 6 0 10 -12 9 -27z m-25 1 c3 -8 2 -12 -4 -9 -6
3 -10 10 -10 16 0 14 7 11 14 -7z"/>
<path d="M851 3314 c-15 -59 -44 -235 -39 -240 3 -2 10 28 17 68 6 40 19 101
27 136 9 35 14 66 11 69 -3 3 -10 -12 -16 -33z"/>
<path d="M894 1956 c-46 -20 -48 -32 -18 -84 36 -62 136 -209 168 -247 l25
-30 40 40 41 40 -85 115 c-47 63 -97 130 -112 147 -27 31 -29 32 -59 19z m134
-141 l100 -136 -25 -29 c-14 -17 -30 -30 -36 -30 -6 0 2 13 18 30 l28 29 -29
33 c-16 19 -58 75 -93 125 -54 77 -68 90 -82 82 -32 -16 -45 -9 -19 11 14 11
28 20 31 20 3 0 51 -61 107 -135z"/>
<path d="M5096 1684 c-20 -52 -86 -190 -131 -270 -15 -27 -19 -40 -10 -29 45
54 170 315 162 338 -2 6 -11 -12 -21 -39z"/>
<path d="M0 1358 c0 -44 1 -46 33 -52 24 -5 43 -19 71 -56 21 -28 43 -50 49
-50 6 0 -3 15 -20 33 -18 17 -54 63 -82 102 l-51 70 0 -47z"/>
<path d="M4820 1275 c-24 -25 -42 -45 -39 -45 3 0 25 20 49 45 24 25 42 45 39
45 -3 0 -25 -20 -49 -45z"/>
<path d="M5074 941 c-21 -16 -92 -58 -157 -95 -139 -77 -193 -114 -227 -152
-28 -31 -25 -30 74 45 38 29 101 68 140 88 94 47 236 143 213 143 -2 0 -21
-13 -43 -29z"/>
<path d="M0 862 c0 -10 120 -89 165 -108 23 -9 33 -19 29 -27 -4 -7 -20 -31
-36 -55 l-29 -43 -65 51 -64 50 0 -165 c0 -91 2 -165 4 -165 2 0 36 51 76 113
40 61 89 138 110 169 l38 57 -66 31 c-36 17 -87 46 -114 65 -26 19 -48 31 -48
27z"/>
<path d="M5030 804 c-47 -30 -97 -58 -113 -61 -21 -4 -26 -10 -22 -23 4 -13
-8 -28 -44 -54 -27 -20 -53 -36 -58 -36 -5 0 -20 -11 -32 -24 l-23 -25 37 -63
c52 -87 157 -248 162 -248 2 0 1 6 -3 13 -14 23 -137 222 -161 261 l-25 39 22
21 c18 16 23 18 27 7 3 -8 34 -51 69 -97 35 -45 58 -84 52 -86 -9 -3 146 -238
158 -238 15 0 -120 226 -201 338 -61 83 -61 80 9 130 l45 32 44 -62 c24 -35
66 -96 93 -137 l49 -74 3 148 c1 81 1 150 -2 152 -2 3 -33 -14 -68 -36 l-63
-40 -32 37 c-18 20 -32 39 -32 42 0 3 31 23 69 44 62 35 144 95 130 95 -3 1
-43 -24 -90 -55z"/>
<path d="M2022 773 c13 -16 64 -86 113 -156 49 -70 93 -131 98 -134 13 -8 7 3
-76 127 -85 127 -134 190 -150 190 -6 0 1 -12 15 -27z"/>
<path d="M2991 730 c-64 -81 -154 -211 -149 -216 3 -2 38 42 78 99 41 56 85
117 98 135 39 52 16 37 -27 -18z"/>
<path d="M350 707 c104 -70 120 -80 120 -74 0 7 -165 117 -176 117 -5 0 20
-19 56 -43z"/>
<path d="M4759 713 c-13 -17 -13 -17 6 -3 11 8 22 16 24 17 2 2 0 3 -6 3 -6 0
-17 -8 -24 -17z"/>
<path d="M1440 629 c-13 -6 -26 -11 -28 -13 -6 -7 50 -201 61 -213 19 -18 57
2 56 29 -1 41 -44 201 -54 204 -6 1 -21 -2 -35 -7z m46 -81 c17 -79 17 -98 2
-98 -8 0 -21 32 -32 76 -15 63 -16 78 -5 85 18 11 19 9 35 -63z"/>
<path d="M3680 615 c0 -8 -13 -40 -29 -72 -58 -115 -177 -550 -148 -540 5 1
18 41 27 88 28 137 98 369 135 448 37 78 41 91 25 91 -5 0 -10 -7 -10 -15z"/>
<path d="M253 547 c-67 -97 -241 -380 -249 -403 -7 -20 120 164 243 353 80
123 85 166 6 50z"/>
<path d="M347 564 c3 -10 -26 -62 -79 -142 -115 -170 -204 -310 -186 -292 30
31 278 417 278 433 0 9 -4 17 -10 17 -5 0 -7 -7 -3 -16z"/>
<path d="M3822 503 c5 -26 38 -29 38 -4 0 15 -6 21 -21 21 -14 0 -19 -5 -17
-17z"/>
<path d="M3662 485 c-16 -34 -15 -45 2 -45 14 0 46 41 46 60 0 21 -37 9 -48
-15z"/>
<path d="M1320 396 c0 -9 7 -16 16 -16 9 0 14 5 12 12 -6 18 -28 21 -28 4z"/>
<path d="M1346 351 c-4 -7 -5 -15 -2 -18 9 -9 19 4 14 18 -4 11 -6 11 -12 0z"/>
<path d="M1534 218 c3 -13 6 -31 6 -41 0 -10 4 -16 8 -13 11 7 2 76 -10 76 -6
0 -8 -10 -4 -22z"/>
<path d="M4541 14 c0 -11 3 -14 6 -6 3 7 2 16 -1 19 -3 4 -6 -2 -5 -13z"/>
</g>
</svg>